<svg width="9" height="13" viewBox="0 0 9 13" fill="none" xmlns="http://www.w3.org/2000/svg">
<path d="M8.25 5.83594C8.44531 6.03125 8.52344 6.26562 8.52344 6.5C8.52344 6.77344 8.44531 7.00781 8.25 7.16406L2.9375 12.4766C2.78125 12.6719 2.54688 12.75 2.27344 12.75C2.03906 12.75 1.80469 12.6719 1.60938 12.4766L0.75 11.5781C0.59375 11.4219 0.476562 11.1875 0.476562 10.9141C0.476562 10.6797 0.59375 10.4453 0.75 10.25L4.5 6.5L0.75 2.71094C0.59375 2.55469 0.476562 2.35938 0.476562 2.08594C0.476562 1.85156 0.59375 1.61719 0.75 1.42188L1.60938 0.523438C1.80469 0.367188 2.03906 0.25 2.27344 0.25C2.54688 0.25 2.78125 0.367188 2.9375 0.523438L8.25 5.83594Z" fill="white"/>
</svg>
