<svg width="24" height="21" viewBox="0 0 24 21" fill="none" xmlns="http://www.w3.org/2000/svg"><path d="M16.306 3.742a.422.422 0 0 0-.274-.117.354.354 0 0 0-.273.117l-8.555 8.555-.39 3.594c-.04.273.038.507.195.664.156.156.39.234.664.195l3.594-.39 8.554-8.555a.355.355 0 0 0 .117-.274.422.422 0 0 0-.117-.273l-3.515-3.516zm6.328-.898c.273.312.43.703.43 1.094 0 .43-.157.78-.43 1.054l-1.407 1.406a.422.422 0 0 1-.273.118.354.354 0 0 1-.273-.118l-3.516-3.515a.355.355 0 0 1-.117-.274c0-.078.039-.195.117-.273L18.57.93c.274-.274.625-.43 1.055-.43.39 0 .781.156 1.094.43l1.914 1.914zm-7.07 11.172c0-.118.038-.235.156-.313l1.562-1.562c.117-.157.274-.196.469-.118.195.079.312.235.312.43v6.172c0 .547-.195.977-.546 1.328-.391.39-.82.547-1.329.547H2.438c-.547 0-.976-.156-1.328-.547-.39-.351-.547-.781-.547-1.328V4.875c0-.508.157-.938.547-1.328A1.795 1.795 0 0 1 2.438 3H13.61c.196 0 .352.117.43.313.078.195.039.351-.117.468L12.36 5.383a.443.443 0 0 1-.312.117H3.063V18h12.5v-3.984z" fill="#5ea997"/></svg>