<svg width="44" height="72" viewBox="0 0 44 72" fill="none" xmlns="http://www.w3.org/2000/svg"><path d="M0 0h44v72H0z"/><path fill-rule="evenodd" clip-rule="evenodd" d="M22 0c-1.705 1.904-2.75 4.402-2.75 7.13.11 6.009.852 12.004.921 18.013.138 5.59-1.567 10.844-3.643 15.961a122.513 122.513 0 0 1-2.2 4.2l-2.2-.446c-1.994-.391-3.287-2.282-2.888-4.226.357-1.715 1.884-2.89 3.589-2.904l.797.082-1.787-14.665C11.248 16.609 7.824 10.87 2.764 7.13A26.303 26.303 0 0 0 0 5.388v52.15h12.265c.921 4.888 3.657 9.142 7.508 12.072A7.059 7.059 0 0 1 22 72a7.059 7.059 0 0 1 2.227-2.39c3.85-2.93 6.587-7.184 7.508-12.072H44V5.388a26.303 26.303 0 0 0-2.764 1.742c-5.06 3.74-8.483 9.48-9.075 16.015L30.374 37.81l.797-.082c1.705.014 3.232 1.189 3.589 2.904.399 1.944-.894 3.835-2.887 4.226l-2.2.446a122.513 122.513 0 0 1-2.2-4.2c-2.077-5.117-3.782-10.37-3.644-15.96.069-6.01.811-12.005.921-18.014 0-2.728-1.045-5.226-2.75-7.13zM3.671 12.91a18.492 18.492 0 0 1 4.441 9.884l1.472 12.112c-1.87.919-3.3 2.593-3.837 4.619H3.671V12.909zm36.658 0v26.614h-2.077c-.536-2.025-1.966-3.7-3.836-4.618l1.472-12.112a18.492 18.492 0 0 1 4.44-9.885zM22 37.241a40.816 40.816 0 0 0 4.015 8.953A8.322 8.322 0 0 0 22 48.855c-1.017-1.255-2.42-2.174-4.015-2.66A40.82 40.82 0 0 0 22 37.242zM3.671 43.13h2.076a7.273 7.273 0 0 0 5.143 5.131l1.76.405a19.577 19.577 0 0 0-.729 5.267h-8.25V43.13zm34.581 0h2.077v10.803h-8.25c0-1.823-.262-3.592-.729-5.267l1.76-.405c2.502-.675 4.483-2.647 5.142-5.131zM16.24 49.49c2.213.31 3.932 2.174 3.932 4.443h-4.579c0-1.54.234-3.025.647-4.443zm11.522 0a15.86 15.86 0 0 1 .646 4.443H23.83c0-2.269 1.718-4.132 3.932-4.443zm-11.756 8.048h4.166v7.576a16.152 16.152 0 0 1-4.166-7.576zm7.824 0h4.166a16.152 16.152 0 0 1-4.166 7.576v-7.576z" fill="#FEE648"/></svg>