<svg width="198" height="253" viewBox="0 0 198 253" fill="none" xmlns="http://www.w3.org/2000/svg">
<path fill-rule="evenodd" clip-rule="evenodd" d="M28.5 71C28.5 32.0639 60.0635 0.5 99 0.5C137.937 0.5 169.5 32.0639 169.5 71V102H178C189.046 102 198 110.954 198 122V233C198 244.046 189.046 253 178 253H20C8.9541 253 0 244.046 0 233V122C0 110.954 8.9541 102 20 102H28.5V71ZM144.5 71V102H53.5V71C53.5 45.871 73.8711 25.5 99 25.5C124.129 25.5 144.5 45.871 144.5 71ZM83.791 158.956C83.791 161.324 81.8975 163.243 79.5615 163.243C77.2266 163.243 75.333 161.324 75.333 158.956C75.333 156.588 77.2266 154.669 79.5615 154.669C81.8975 154.669 83.791 156.588 83.791 158.956ZM90.8389 158.956C90.8389 165.27 85.79 170.389 79.5615 170.389C73.334 170.389 68.2852 165.27 68.2852 158.956C68.2852 152.642 73.334 147.523 79.5615 147.523C85.79 147.523 90.8389 152.642 90.8389 158.956ZM147.967 137.709C149.344 136.313 149.344 134.051 147.967 132.656C146.591 131.261 144.359 131.261 142.983 132.656L60.875 215.901C59.499 217.296 59.499 219.558 60.875 220.954C62.251 222.349 64.4824 222.349 65.8584 220.954L92.3906 194.055L93.9648 195.65L101.426 194.582V204.732H113.628L115.123 217.102L117.505 219.516L139.337 218.203L139.185 197.37L114.152 171.991L147.967 137.709ZM109.999 176.202L97.2051 189.173L107.299 187.728V198.777H118.825L120.589 213.366L133.423 212.594L133.329 199.855L109.999 176.202ZM97.3848 141.349C102.931 146.972 105.314 154.587 104.535 161.922L110.389 155.986C109.689 149.104 106.739 142.412 101.538 137.139C89.5195 124.954 70.0332 124.954 58.0137 137.139C45.9951 149.324 45.9951 169.08 58.0137 181.265C63.2158 186.539 69.8154 189.53 76.6045 190.239L82.459 184.303C75.2236 185.094 67.7129 182.677 62.167 177.055C52.4424 167.195 52.4424 151.209 62.167 141.349C71.8926 131.49 87.6602 131.49 97.3848 141.349Z" fill="white"/>
</svg>
