<?xml version="1.0" encoding="utf-8"?>
<!-- Generated by IcoMoon.io -->
<svg version="1.1" xmlns="http://www.w3.org/2000/svg" xmlns:xlink="http://www.w3.org/1999/xlink" width="752" height="368" viewBox="0 0 752 368">
<svg id="icon-arrow-left" width="32" height="32" viewBox="0 0 32 32" x="0" y="0">
<path d="M22.227 0l3.773 3.772-12.452 12.233 12.452 12.223-3.773 3.772-16.227-15.995z"></path>
</svg>
<svg id="icon-arrow-right" width="32" height="32" viewBox="0 0 32 32" x="48" y="0">
<path d="M9.773 32l-3.773-3.772 12.452-12.233-12.452-12.223 3.773-3.772 16.227 15.995z"></path>
</svg>
<svg id="icon-arrow-left-long" width="32" height="32" viewBox="0 0 32 32" x="96" y="0">
<path fill="none" stroke-linejoin="miter" stroke-linecap="butt" stroke-miterlimit="4" stroke-width="3.0968" stroke="#000" d="M10.034 8.774l-6.937 7.226 6.937 7.226"></path>
<path fill="none" stroke-linejoin="miter" stroke-linecap="butt" stroke-miterlimit="4" stroke-width="3.0968" stroke="#000" d="M3.097 16h28.903"></path>
</svg>
<svg id="icon-triangle-down" width="32" height="32" viewBox="0 0 32 32" x="144" y="0">
<path d="M16.572 26.531c-0.26 0.431-0.883 0.431-1.143 0l-12.493-20.727c-0.267-0.444 0.052-1.009 0.572-1.009l24.891 0.008c0.513 0 0.839 0.563 0.571 1.011l-12.397 20.717zM16 29.842c1.013 0 2.028-0.493 2.621-1.481l12.943-21.573c1.22-2.031-0.243-4.629-2.62-4.629h-25.888c-2.377 0-3.839 2.599-2.62 4.629l12.943 21.573c0.595 0.988 1.607 1.481 2.621 1.481z"></path>
</svg>
<svg id="icon-check" width="32" height="32" viewBox="0 0 32 32" x="192" y="0">
<path d="M12 28.047l-12-11.517 3.721-3.827 8.208 7.832 16.28-16.581 3.791 3.756z"></path>
</svg>
<svg id="icon-minus" width="32" height="32" viewBox="0 0 32 32" x="240" y="0">
<path d="M0 13.333h32v5.333h-32z"></path>
</svg>
<svg id="icon-add" width="32" height="32" viewBox="0 0 32 32" x="288" y="0">
<path d="M32 13.333h-13.333v-13.333h-5.333v13.333h-13.333v5.333h13.333v13.333h5.333v-13.333h13.333z"></path>
</svg>
<svg id="icon-close" width="32" height="32" viewBox="0 0 32 32" x="336" y="0">
<path d="M32 28.101l-12.245-12.127 12.123-12.232-3.776-3.743-12.12 12.239-12.235-12.117-3.747 3.747 12.248 12.14-12.127 12.245 3.747 3.747 12.149-12.256 12.24 12.133z"></path>
</svg>
<svg id="icon-trash" width="32" height="32" viewBox="0 0 32 32" x="384" y="0">
<path d="M25.333 32h-18.667c-1.472 0-2.667-1.195-2.667-2.667v-22.667h-1.333v-2.667h8v-2c0-1.103 0.897-2 2-2h6.667c1.1 0 2 0.895 2 2v2h8v2.667h-1.333v22.667c0 1.472-1.195 2.667-2.667 2.667zM6.667 28.667c0 0.368 0.299 0.667 0.667 0.667h17.333c0.368 0 0.667-0.299 0.667-0.667v-22h-18.667v22zM13.333 4h5.333v-1.333h-5.333v1.333z"></path>
</svg>
<svg id="icon-menu-vertical" width="32" height="32" viewBox="0 0 32 32" x="432" y="0">
<path d="M16 24c2.209 0 4 1.791 4 4s-1.791 4-4 4-4-1.791-4-4 1.791-4 4-4zM16 12c2.209 0 4 1.791 4 4s-1.791 4-4 4-4-1.791-4-4 1.791-4 4-4zM16 0c2.209 0 4 1.791 4 4s-1.791 4-4 4-4-1.791-4-4 1.791-4 4-4z"></path>
</svg>
<svg id="icon-magnifier" width="32" height="32" viewBox="0 0 32 32" x="480" y="0">
<path d="M28.229 32l-9.849-9.849c-1.851 1.165-4.032 1.849-6.38 1.849-6.628 0-12-5.372-12-12s5.372-12 12-12 12 5.372 12 12c0 2.348-0.685 4.531-1.849 6.38l9.849 9.849-3.771 3.771zM12 21.333c5.145 0 9.333-4.187 9.333-9.333s-4.188-9.333-9.333-9.333-9.333 4.187-9.333 9.333 4.188 9.333 9.333 9.333z"></path>
</svg>
<svg id="icon-refresh" width="32" height="32" viewBox="0 0 32 32" x="528" y="0">
<path d="M12 16l-5.951 6.625-6.049-6.625h4c0-6.627 5.373-12 12-12 3.193 0 6.087 1.256 8.239 3.291l-2.672 2.975c-1.441-1.4-3.404-2.265-5.567-2.265-4.412 0-8 3.588-8 8h4zM25.951 9.375l-5.951 6.625h4c0 4.412-3.588 8-8 8-2.164 0-4.125-0.867-5.567-2.265l-2.672 2.975c2.151 2.035 5.045 3.291 8.239 3.291 6.627 0 12-5.373 12-12h4l-6.049-6.625z"></path>
</svg>
<svg id="icon-log-in" width="32" height="32" viewBox="0 0 32 32" x="576" y="0">
<path d="M10.667 12v-5.333l10.667 9.333-10.667 9.333v-5.333h-10.667v-8h10.667zM18.667 2.667c-2.383 0-4.613 0.632-6.548 1.727l0.304 0.267 1.86 1.628c1.339-0.608 2.82-0.955 4.384-0.955 5.881 0 10.667 4.785 10.667 10.667s-4.785 10.667-10.667 10.667c-1.564 0-3.045-0.347-4.384-0.953l-2.164 1.895c1.935 1.093 4.165 1.725 6.548 1.725 7.363 0 13.333-5.969 13.333-13.333s-5.971-13.333-13.333-13.333z"></path>
</svg>
<svg id="icon-log-out" width="32" height="32" viewBox="0 0 32 32" x="624" y="0">
<path d="M21.333 12v-5.333l10.667 9.333-10.667 9.333v-5.333h-10.667v-8h10.667zM18.667 25.333v-0.111c-1.571 0.913-3.389 1.444-5.333 1.444-5.881 0-10.667-4.785-10.667-10.667s4.785-10.667 10.667-10.667c1.944 0 3.763 0.531 5.333 1.444v-2.993c-1.635-0.715-3.436-1.117-5.333-1.117-7.363 0-13.333 5.969-13.333 13.333s5.971 13.333 13.333 13.333c1.897 0 3.699-0.403 5.333-1.117v-2.883z"></path>
</svg>
<svg id="icon-download" width="32" height="32" viewBox="0 0 32 32" x="672" y="0">
<path d="M16 28l-10.667-12h8v-16h5.333v16h8l-10.667 12zM28 26.667v2.667h-24v-2.667h-2.667v5.333h29.333v-5.333h-2.667z"></path>
</svg>
<svg id="icon-import-down" width="32" height="32" viewBox="0 0 32 32" x="720" y="0">
<path d="M30.667 32v-26.667h-10.667v2.667h8v21.333h-24v-21.333h8v-2.667h-10.667v26.667h29.333zM14.667 14.667h-5.333l6.667 8 6.667-8h-5.333v-14.667h-2.667v14.667z"></path>
</svg>
<svg id="icon-enter" width="32" height="32" viewBox="0 0 32 32" x="0" y="48">
<path d="M32 29.333h-26.667v-9.333h2.667v6.667h21.333v-21.333h-21.333v6.667h-2.667v-9.333h26.667v26.667zM14.667 14.667v-5.333l8 6.667-8 6.667v-5.333h-14.667v-2.667h14.667z"></path>
</svg>
<svg id="icon-timeline" width="32" height="32" viewBox="0 0 32 32" x="48" y="48">
<path d="M25.065 9.384c-0.661-0.713-1.065-1.669-1.065-2.717 0-2.208 1.792-4 4-4s4 1.792 4 4-1.792 4-4 4c-0.195 0-0.387-0.013-0.575-0.041l-4.444 8.043c0.633 0.707 1.019 1.641 1.019 2.665 0 2.208-1.792 4-4 4s-4-1.792-4-4c0-0.777 0.223-1.503 0.607-2.116l-3.42-4.729c-0.375 0.116-0.773 0.179-1.187 0.179l-0.491-0.029-4.473 8.092c0.601 0.7 0.964 1.611 0.964 2.604 0 2.208-1.792 4-4 4s-4-1.792-4-4 1.792-4 4-4c0.248 0 0.489 0.023 0.724 0.065l4.397-7.956c-0.693-0.719-1.121-1.697-1.121-2.776 0-2.208 1.792-4 4-4s4 1.792 4 4c0 0.823-0.249 1.588-0.676 2.225l3.369 4.66c0.409-0.141 0.849-0.219 1.307-0.219 0.219 0 0.433 0.017 0.643 0.052l4.423-8.001zM20 20c-0.736 0-1.333 0.597-1.333 1.333s0.597 1.333 1.333 1.333c0.736 0 1.333-0.597 1.333-1.333s-0.597-1.333-1.333-1.333zM12 9.333c-0.736 0-1.333 0.597-1.333 1.333s0.597 1.333 1.333 1.333c0.736 0 1.333-0.597 1.333-1.333s-0.597-1.333-1.333-1.333z"></path>
</svg>
<svg id="icon-timeline-pin" width="32" height="32" viewBox="0 0 32 32" x="96" y="48">
<path d="M7.772 28c-0.549 1.553-2.032 2.667-3.772 2.667-2.208 0-4-1.792-4-4s1.792-4 4-4c1.74 0 3.223 1.113 3.772 2.667h4.456c0.549-1.553 2.032-2.667 3.772-2.667s3.223 1.113 3.772 2.667h4.456c0.549-1.553 2.032-2.667 3.772-2.667 2.208 0 4 1.792 4 4s-1.792 4-4 4c-1.74 0-3.223-1.113-3.772-2.667h-4.456c-0.549 1.553-2.032 2.667-3.772 2.667s-3.223-1.113-3.772-2.667h-4.456zM16 25.333c-0.736 0-1.333 0.597-1.333 1.333s0.597 1.333 1.333 1.333c0.736 0 1.333-0.597 1.333-1.333s-0.597-1.333-1.333-1.333zM16 1.333c-3.499 0-6.667 2.836-6.667 6.335s2.891 7.675 6.667 13.665c3.776-5.991 6.667-10.167 6.667-13.665s-3.168-6.335-6.667-6.335zM16 10.667c-1.473 0-2.667-1.193-2.667-2.667s1.193-2.667 2.667-2.667 2.667 1.193 2.667 2.667-1.193 2.667-2.667 2.667z"></path>
</svg>
<svg id="icon-chart-line-up" width="32" height="32" viewBox="0 0 32 32" x="144" y="48">
<path d="M31.263 10.132c-0.088-0.059-0.195-0.094-0.311-0.094s-0.224 0.035-0.313 0.095l0.002-0.001-9.343 4.846c-0.174 0.102-0.289 0.287-0.289 0.5 0 0.254 0.164 0.469 0.392 0.547l2.48 0.746-5.545 6.684-1.413-15.602c1.549-0.594 2.628-2.069 2.628-3.797 0-2.24-1.816-4.056-4.056-4.056s-4.055 1.815-4.056 4.055v0c0.003 0.637 0.154 1.237 0.421 1.77l-0.011-0.023-5.636 6.077c-0.433-0.173-0.934-0.274-1.46-0.274-0.021 0-0.042 0-0.063 0h0.003c-2.24 0-4.056 1.816-4.056 4.056s1.816 4.056 4.056 4.056c2.24 0 4.056-1.816 4.056-4.056v0c-0.006-0.643-0.162-1.249-0.436-1.785l0.011 0.023 5.53-6.077 1.519 16.18c-1.792 0.446-3.099 2.041-3.099 3.942 0 2.24 1.816 4.056 4.056 4.056s4.056-1.816 4.056-4.056c0-0.002 0-0.005 0-0.007v0c-0.005-0.703-0.19-1.362-0.512-1.934l0.010 0.020 6.259-7.596 1.185 2.294c0.098 0.18 0.285 0.301 0.501 0.304v0c0.23-0.022 0.419-0.179 0.485-0.391l0.001-0.004 3.038-10.072c0.006-0.031 0.010-0.067 0.010-0.104 0-0.12-0.038-0.232-0.102-0.323l0.001 0.002z"></path>
</svg>
<svg id="icon-cycle-rounded" width="32" height="32" viewBox="0 0 32 32" x="192" y="48">
<path d="M15.906 30.007c-6.387 0-11.565-5.178-11.565-11.565s5.178-11.565 11.565-11.565c6.387 0 11.565 5.178 11.565 11.565v0c-0.011 6.383-5.182 11.554-11.564 11.565h-0.001zM15.906 9.759c-0.022 0-0.049 0-0.075 0-4.796 0-8.683 3.888-8.683 8.683s3.888 8.683 8.683 8.683c4.795 0 8.683-3.887 8.683-8.683v0c0 0 0 0 0 0 0-4.769-3.845-8.64-8.604-8.683h-0.004z"></path>
<path d="M21.52 6.784c0 3.049-2.472 5.52-5.52 5.52s-5.52-2.472-5.52-5.52c0-3.049 2.472-5.52 5.52-5.52s5.52 2.472 5.52 5.52z"></path>
<path d="M11.041 25.216c0 3.049-2.472 5.52-5.52 5.52s-5.52-2.472-5.52-5.52c0-3.049 2.472-5.52 5.52-5.52s5.52 2.472 5.52 5.52z"></path>
<path d="M32 25.216c0 3.049-2.472 5.52-5.52 5.52s-5.52-2.472-5.52-5.52c0-3.049 2.472-5.52 5.52-5.52s5.52 2.472 5.52 5.52z"></path>
</svg>
<svg id="icon-share" width="32" height="32" viewBox="0 0 32 32" x="240" y="48">
<path d="M8 2.667c0.736 0 1.333 0.599 1.333 1.333s-0.597 1.333-1.333 1.333-1.333-0.599-1.333-1.333 0.597-1.333 1.333-1.333zM28 14.667c0.736 0 1.333 0.597 1.333 1.333s-0.597 1.333-1.333 1.333-1.333-0.599-1.333-1.333c0-0.736 0.597-1.333 1.333-1.333zM8 26.667c0.736 0 1.333 0.599 1.333 1.333s-0.597 1.333-1.333 1.333-1.333-0.599-1.333-1.333 0.597-1.333 1.333-1.333zM8 0c-2.208 0-4 1.791-4 4s1.792 4 4 4 4-1.791 4-4-1.792-4-4-4zM28 12c-2.208 0-4 1.791-4 4s1.792 4 4 4 4-1.791 4-4-1.792-4-4-4zM8 24c-2.209 0-4 1.791-4 4s1.791 4 4 4c2.208 0 4-1.791 4-4s-1.792-4-4-4zM14.117 1.361l0.549-0.028c5.708 0 10.641 3.267 13.067 8.028-0.956 0.039-1.853 0.28-2.664 0.681-2.073-3.604-5.955-6.043-10.403-6.043 0-0.937-0.199-1.829-0.549-2.639zM27.733 22.639c-2.425 4.761-7.359 8.028-13.067 8.028l-0.549-0.028c0.351-0.809 0.549-1.701 0.549-2.639 4.448 0 8.329-2.439 10.403-6.043 0.811 0.403 1.708 0.644 2.664 0.681zM2.52 24.22c-1.591-2.345-2.52-5.173-2.52-8.22s0.929-5.875 2.52-8.22c0.523 0.755 1.201 1.385 1.983 1.871-1.156 1.844-1.836 4.016-1.836 6.349s0.68 4.505 1.836 6.349c-0.781 0.485-1.461 1.116-1.983 1.871z"></path>
</svg>
<svg id="icon-pin" width="32" height="32" viewBox="0 0 32 32" x="288" y="48">
<path d="M22.253 6.352c-1.601-1.597-3.811-2.584-6.251-2.584-4.89 0-8.853 3.964-8.853 8.853 0 1.532 0.389 2.973 1.074 4.23l-0.023-0.046 7.8 11.427 7.8-11.427c0.663-1.211 1.053-2.654 1.053-4.187 0-2.448-0.993-4.664-2.599-6.266l-0-0zM15.933 16.712c-2.297 0-4.16-1.863-4.16-4.16s1.863-4.16 4.16-4.16c2.297 0 4.16 1.863 4.16 4.16v0c-0.015 2.289-1.87 4.139-4.159 4.147h-0.001z"></path>
</svg>
<svg id="icon-time-pin" width="32" height="32" viewBox="0 0 32 32" x="336" y="48">
<path d="M15.919 5.382c-3.377 0-6.114 2.738-6.114 6.114s2.738 6.114 6.114 6.114c3.377 0 6.114-2.738 6.114-6.114v0c-0.010-3.373-2.741-6.105-6.114-6.114h-0.001zM17.121 13.378h-3.937c-0.597 0-1.080-0.484-1.080-1.080s0.484-1.080 1.080-1.080h1.847v-2.892c0.125-0.468 0.545-0.808 1.045-0.808s0.92 0.339 1.044 0.8l0.002 0.008z"></path>
<path d="M24.194 3.414c-2.096-2.109-4.998-3.414-8.205-3.414-6.388 0-11.567 5.179-11.567 11.567 0 2.017 0.516 3.913 1.424 5.564l-0.030-0.060 10.191 14.929 10.191-14.929c0.87-1.585 1.381-3.474 1.381-5.482 0-3.192-1.293-6.083-3.385-8.176v0zM15.936 20.032c-4.714 0-8.536-3.822-8.536-8.536s3.822-8.536 8.536-8.536c4.714 0 8.536 3.822 8.536 8.536v0c0 0 0 0 0 0 0 4.714-3.822 8.536-8.536 8.536-0.006 0-0.012 0-0.018 0h0.001z"></path>
</svg>
<svg id="icon-location-map-pin" width="32" height="32" viewBox="0 0 32 32" x="384" y="48">
<path d="M16 4c2.841 0 5.333 2.307 5.333 4.936 0 2.733-2.285 6.588-5.333 11.415-3.048-4.827-5.333-8.681-5.333-11.415 0-2.629 2.492-4.936 5.333-4.936zM16 1.333c-4.197 0-8 3.404-8 7.603 0 4.197 3.469 9.209 8 16.397 4.531-7.188 8-12.2 8-16.397 0-4.199-3.801-7.603-8-7.603zM16 12c-1.473 0-2.667-1.193-2.667-2.667s1.193-2.667 2.667-2.667 2.667 1.193 2.667 2.667-1.193 2.667-2.667 2.667zM26.667 20h-4.18c-0.513 0.855-1.064 1.745-1.643 2.667h4.175l0.667 1.333h-5.685l-0.459 0.725-0.385 0.608h0.744l1.144 2.667h-9.984l1.144-2.667h0.639l-0.385-0.608-0.457-0.725h-2.723l-1.348-1.333h3.227c-0.58-0.921-1.131-1.812-1.643-2.667h-4.18l-5.333 10.667h32l-5.333-10.667zM9.608 28h-5.293l2.352-4.704 2.021 2.037h2.065l-1.145 2.667zM21.352 25.333h5l1.333 2.667h-5.189l-1.144-2.667z"></path>
</svg>
<svg id="icon-map-magnifier" width="32" height="32" viewBox="0 0 32 32" x="432" y="48">
<path d="M32 30.115l-3.764-3.764c0.701-1.056 1.115-2.32 1.115-3.684 0-3.683-2.984-6.667-6.667-6.667s-6.667 2.984-6.667 6.667 2.984 6.667 6.667 6.667c1.355 0 2.609-0.409 3.661-1.103l3.769 3.769 1.885-1.885zM18.684 22.667c0-2.205 1.795-4 4-4s4 1.795 4 4-1.795 4-4 4-4-1.795-4-4zM13.351 22.667l0.003-0.045-4.020 2.9v-17.424l5.333-3.848v13.663c0.677-1.139 1.585-2.121 2.667-2.881v-10.781l5.333 3.848v5.236h0.017c0.448 0 0.885 0.043 1.316 0.104v-5.343l5.333-3.305v11.339c1.584 1.611 2.581 3.792 2.667 6.204v-22.332l-8.607 5.333-7.393-5.333-7.393 5.333-8.607-5.333v24l8.607 5.333 5.213-3.76c-0.301-0.916-0.469-1.892-0.469-2.907zM8 25.82l-5.333-3.305v-17.725l5.333 3.305v17.725z"></path>
</svg>
<svg id="icon-map-path" width="32" height="32" viewBox="0 0 32 32" x="480" y="48">
<path d="M8.76 17.88c-0.497 0-0.988-0.088-1.457-0.26l0.543-1.473c0.295 0.108 0.601 0.163 0.915 0.163 0.347 0 0.685-0.067 1.005-0.197l0.596 1.453c-0.509 0.209-1.048 0.315-1.601 0.315zM20.32 16.836l-2.212-1.26 0.777-1.365 2.213 1.26-0.779 1.365zM11.713 16.809l-0.807-1.348 2.185-1.308 0.807 1.348-2.185 1.308zM16.937 14.932c-0.324-0.135-0.667-0.204-1.019-0.204-0.307 0-0.609 0.053-0.899 0.159l-0.535-1.477c0.461-0.167 0.944-0.251 1.433-0.252 0.56 0 1.107 0.109 1.623 0.325l-0.604 1.449zM5.292 14.715c-0.713 0-1.292 0.577-1.292 1.291s0.579 1.291 1.292 1.291c0.713 0 1.292-0.579 1.292-1.291-0.001-0.713-0.579-1.291-1.292-1.291zM23.393 5.333l-7.393-5.333-7.393 5.333-8.607-5.333v26.667l8.607 5.333 7.393-5.333 7.393 5.333 8.607-5.333v-26.667l-8.607 5.333zM29.333 25.183l-5.333 3.305v-5.821h-1.333v5.521l-5.333-3.847v-5.675h-2.667v5.673l-5.333 3.847v-6.853h-1.333v7.153l-5.333-3.305v-20.392l5.333 3.305v3.905h1.333v-3.903l5.333-3.848v5.084h2.667v-5.084l5.333 3.848v2.569h1.333v-2.572l5.333-3.305v20.393zM27.563 18.688l-1.728-1.699 1.697-1.724-0.944-0.936-1.696 1.727-1.725-1.696-0.937 0.936 1.728 1.701-1.697 1.728 0.937 0.937 1.703-1.731 1.727 1.7 0.936-0.944z"></path>
</svg>
<svg id="icon-map-mark" width="32" height="32" viewBox="0 0 32 32" x="528" y="48">
<path d="M23.323 20.576c-0.577 0-1.14-0.116-1.671-0.345l0.623-1.443c0.333 0.143 0.685 0.216 1.048 0.216 0.296 0 0.588-0.049 0.868-0.147l0.517 1.483c-0.445 0.157-0.911 0.236-1.385 0.236zM8.76 20.547c-0.497 0-0.988-0.088-1.457-0.26l0.543-1.473c0.295 0.108 0.601 0.163 0.915 0.163 0.347 0 0.685-0.067 1.005-0.197l0.596 1.453c-0.509 0.209-1.048 0.315-1.601 0.315zM20.32 19.503l-2.212-1.26 0.777-1.365 2.213 1.26-0.779 1.365zM11.713 19.476l-0.807-1.348 2.185-1.308 0.807 1.348-2.185 1.308zM16.937 17.599c-0.324-0.135-0.667-0.204-1.019-0.204-0.307 0-0.609 0.053-0.899 0.159l-0.535-1.477c0.461-0.167 0.944-0.251 1.433-0.251 0.56 0 1.107 0.109 1.623 0.325l-0.604 1.448zM26.707 17.381c-0.712 0-1.291 0.577-1.291 1.291s0.579 1.291 1.291 1.291c0.713 0 1.292-0.579 1.292-1.291 0-0.713-0.579-1.291-1.292-1.291zM5.292 17.381c-0.713 0-1.292 0.577-1.292 1.291s0.579 1.291 1.292 1.291 1.292-0.579 1.292-1.291c0-0.713-0.579-1.291-1.292-1.291zM29.333 16.272v8.911l-5.333 3.305v-5.821h-1.333v5.521l-5.333-3.847v-4.341h-2.667v4.34l-5.333 3.847v-5.52h-1.333v5.82l-5.333-3.305v-17.725l5.333 3.305v5.239h1.333v-5.236l5.333-3.848v6.417h2.667v-6.417l2.103 1.517c-0.452-0.935-0.769-2.024-0.769-3.365l0.025-0.46-2.692-1.941-7.393 5.333-8.607-5.333v24l8.607 5.333 7.393-5.333 7.393 5.333 8.607-5.333v-15.491l-0.052 0.063c-1.108 1.309-2.152 2.557-2.615 5.033zM32 5.068c0-2.799-2.533-5.068-5.333-5.068s-5.333 2.269-5.333 5.068c0 4.161 4.251 4.601 5.333 10.932 1.083-6.331 5.333-6.771 5.333-10.932zM24.667 5.333c0-1.105 0.896-2 2-2s2 0.895 2 2-0.896 2-2 2-2-0.895-2-2zM23.936 16c-0.283-1.323-0.729-2.299-1.269-3.112v3.112h1.269z"></path>
</svg>
<svg id="icon-globe" width="32" height="32" viewBox="0 0 32 32" x="576" y="48">
<path d="M31.056 10.752v-0.18c-2.292-6.218-8.165-10.571-15.056-10.571s-12.764 4.354-15.020 10.46l-0.036 0.111v0.18c-0.561 1.564-0.885 3.368-0.885 5.248s0.324 3.684 0.919 5.36l-0.035-0.112v0.18c2.292 6.218 8.165 10.571 15.056 10.571s12.764-4.354 15.020-10.46l0.036-0.111v-0.18c0.561-1.564 0.885-3.368 0.885-5.248s-0.324-3.684-0.919-5.36l0.035 0.112zM22.249 12.851h6.019c0.251 0.945 0.395 2.030 0.395 3.149s-0.144 2.204-0.414 3.238l0.020-0.089h-6.019c0-1.033 0.115-2.099 0.115-3.149s-0.033-2.099-0.115-3.149zM20.412 4.093c2.795 1.058 5.062 2.98 6.528 5.436l0.032 0.058h-5.084c-0.303-2.057-0.818-3.907-1.534-5.654l0.058 0.16zM18.575 22.429c-0.208 1.266-0.482 2.371-0.833 3.441l0.046-0.161c-0.82 2.477-1.64 3.067-1.837 3.083s-1-0.607-1.837-3.083c-0.306-0.909-0.579-2.014-0.769-3.147l-0.018-0.133zM10.014 22.429c0.303 2.057 0.818 3.907 1.534 5.654l-0.058-0.16c-2.795-1.058-5.062-2.98-6.528-5.436l-0.032-0.058zM4.962 9.587c1.499-2.514 3.765-4.436 6.473-5.465l0.088-0.029c-0.658 1.587-1.173 3.438-1.46 5.363l-0.016 0.131zM13.327 9.587c0.208-1.266 0.482-2.371 0.833-3.44l-0.046 0.16c0.82-2.477 1.64-3.067 1.837-3.083s1 0.607 1.837 3.083c0.306 0.91 0.579 2.014 0.769 3.148l0.018 0.133zM19.1 16.016c0 1.066 0 2.116-0.115 3.149h-6.068c0-1.033-0.115-2.083-0.115-3.149s0-2.116 0.115-3.149h6.068c0.066 1.017 0.115 2.083 0.115 3.149zM26.939 22.446c-1.499 2.514-3.765 4.436-6.473 5.465l-0.088 0.029c0.658-1.587 1.173-3.438 1.46-5.363l0.016-0.131zM9.636 19.165h-6.019c-0.25-0.945-0.394-2.030-0.394-3.149s0.144-2.204 0.414-3.238l-0.020 0.089h6.019c0 1.033-0.115 2.099-0.115 3.149s0.033 2.099 0.115 3.149z"></path>
</svg>
<svg id="icon-settings" width="32" height="32" viewBox="0 0 32 32" x="624" y="48">
<path d="M32 18.916v-5.832c-2.864-1.021-3.635-1.069-4.036-2.039-0.404-0.972 0.111-1.559 1.412-4.297l-4.124-4.124c-2.701 1.284-3.317 1.819-4.299 1.412-0.969-0.403-1.024-1.185-2.036-4.036h-5.833c-1.019 2.859-1.067 3.633-2.039 4.036-1.003 0.417-1.604-0.133-4.297-1.412l-4.124 4.124c1.303 2.74 1.816 3.324 1.412 4.299-0.403 0.969-1.175 1.019-4.036 2.037v5.833c2.852 1.013 3.633 1.067 4.036 2.037 0.405 0.979-0.108 1.556-1.412 4.297l4.124 4.124c2.665-1.267 3.293-1.831 4.297-1.412 0.971 0.403 1.019 1.173 2.039 4.036h5.832c1.011-2.841 1.065-3.631 2.049-4.041 0.993-0.411 1.581 0.132 4.287 1.416l4.124-4.124c-1.3-2.733-1.816-3.323-1.412-4.297 0.4-0.968 1.173-1.017 4.036-2.037zM25.5 19.935c-0.769 1.859-0.091 3.277 0.651 4.771l-1.445 1.445c-1.457-0.724-2.881-1.435-4.764-0.653-1.861 0.775-2.387 2.257-2.917 3.836h-2.045c-0.531-1.58-1.055-3.063-2.911-3.833-1.892-0.784-3.343-0.060-4.772 0.651l-1.444-1.445c0.743-1.491 1.421-2.907 0.649-4.773-0.772-1.855-2.255-2.379-3.835-2.909v-2.044c1.58-0.531 3.063-1.055 3.833-2.912 0.771-1.859 0.091-3.279-0.651-4.772l1.445-1.445c1.443 0.717 2.883 1.436 4.773 0.651 1.856-0.769 2.38-2.253 2.911-3.833h2.045c0.531 1.58 1.056 3.063 2.912 3.833 1.892 0.784 3.341 0.060 4.772-0.651l1.445 1.445c-0.741 1.495-1.42 2.916-0.651 4.773 0.769 1.855 2.252 2.379 3.833 2.911v2.045c-1.584 0.531-3.069 1.055-3.836 2.911zM16 12c2.205 0 4 1.795 4 4s-1.795 4-4 4-4-1.795-4-4 1.795-4 4-4zM16 9.333c-3.683 0-6.667 2.984-6.667 6.667s2.984 6.667 6.667 6.667 6.667-2.984 6.667-6.667-2.984-6.667-6.667-6.667z"></path>
</svg>
<svg id="icon-eye" width="32" height="32" viewBox="0 0 32 32" x="672" y="48">
<path d="M16.020 9.333c6.335 0 10.751 4.016 12.672 6.181-1.868 2.449-6.284 7.152-12.672 7.152-5.893 0-10.573-4.715-12.637-7.209 1.991-2.196 6.423-6.124 12.637-6.124zM16.020 6.667c-10.092 0-16.020 8.735-16.020 8.735s6.447 9.932 16.020 9.932c10.311 0 15.98-9.932 15.98-9.932s-5.721-8.735-15.98-8.735zM16 13.333c1.471 0 2.667 1.196 2.667 2.667s-1.196 2.667-2.667 2.667-2.667-1.196-2.667-2.667 1.196-2.667 2.667-2.667zM16 10.667c-2.945 0-5.333 2.389-5.333 5.333 0 2.945 2.388 5.333 5.333 5.333s5.333-2.388 5.333-5.333c0-2.944-2.388-5.333-5.333-5.333z"></path>
</svg>
<svg id="icon-webcam" width="32" height="32" viewBox="0 0 32 32" x="720" y="48">
<path d="M24 0c-4.227 0-8 2.82-8 6.672 0 1.367 0.492 2.711 1.367 3.749 0.031 1.219-0.687 2.976-1.328 4.251 1.733-0.312 4.195-1.008 5.312-1.695 6.165 1.499 10.649-2.267 10.649-6.305 0-3.875-3.797-6.672-8-6.672zM20.664 7.672c-0.547 0-1-0.453-1-1 0-0.555 0.453-1 1-1 0.555 0 1 0.445 1 1 0 0.547-0.445 1-1 1zM24 7.672c-0.555 0-1-0.453-1-1 0-0.555 0.445-1 1-1s1 0.445 1 1c0 0.547-0.445 1-1 1zM27.336 7.672c-0.555 0-1-0.453-1-1 0-0.555 0.445-1 1-1 0.547 0 1 0.445 1 1 0 0.547-0.453 1-1 1zM0 16.167c0-5.245 4.255-9.5 9.5-9.5 1.388 0 2.703 0.305 3.891 0.84 0.107 1.069 0.416 2.101 0.907 3.051-1.292-1.107-2.967-1.78-4.797-1.78-4.075 0-7.389 3.313-7.389 7.389s3.313 7.389 7.389 7.389c3.709 0 6.779-2.749 7.301-6.315 0.6-0.116 1.36-0.288 2.169-0.512-0.292 4.983-4.416 8.937-9.472 8.937-5.244 0-9.499-4.255-9.499-9.5zM15.104 26.156l3.896 5.844h-19l3.896-5.844c0.599 0.376 1.237 0.692 1.908 0.944l-1.859 2.789h11.109l-1.859-2.789c0.671-0.252 1.309-0.568 1.908-0.944zM5.277 16.167c0 2.333 1.889 4.223 4.223 4.223s4.223-1.889 4.223-4.223-1.889-4.223-4.223-4.223-4.223 1.889-4.223 4.223zM11.611 16.167c0 1.164-0.948 2.111-2.111 2.111s-2.111-0.948-2.111-2.111 0.948-2.111 2.111-2.111 2.111 0.947 2.111 2.111z"></path>
</svg>
<svg id="icon-network" width="32" height="32" viewBox="0 0 32 32" x="0" y="96">
<path d="M0 22.66h8.46v8.66h-8.46v-8.66z"></path>
<path d="M11.64 11.020h8.46v20.36h-8.46v-20.36z"></path>
<path d="M23.54 0.62h8.46v30.76h-8.46v-30.76z"></path>
</svg>
<svg id="icon-key-line" width="32" height="32" viewBox="0 0 32 32" x="48" y="96">
<path d="M21.333 2.667c4.412 0 8 3.588 8 8s-3.588 8-8 8-8-3.588-8-8 3.588-8 8-8zM21.333 0c-5.891 0-10.667 4.776-10.667 10.667s4.776 10.667 10.667 10.667 10.667-4.776 10.667-10.667-4.776-10.667-10.667-10.667zM14.127 21.867l-1.963 2.133h-4.164v2.667h-2.667v2.667h-2.667v-2.905l7.871-7.968c-0.539-0.745-1.005-1.544-1.384-2.393l-9.153 9.267v6.667h8v-2.667h2.667v-2.667h2.667l3.268-3.551c-0.873-0.332-1.701-0.749-2.475-1.249zM24 6.667c0.735 0 1.333 0.599 1.333 1.333s-0.599 1.333-1.333 1.333-1.333-0.599-1.333-1.333 0.599-1.333 1.333-1.333zM24 5.333c-1.472 0-2.667 1.195-2.667 2.667s1.195 2.667 2.667 2.667 2.667-1.195 2.667-2.667-1.195-2.667-2.667-2.667z"></path>
</svg>
<svg id="icon-key" width="32" height="32" viewBox="0 0 32 32" x="96" y="96">
<path d="M16.601 23.116l-3.268 3.551h-2.667v2.667h-2.667v2.667h-8v-1.724l9.413-9.413c-0.285-0.347-0.551-0.711-0.799-1.087l-8.615 8.615v-3.057l9.153-9.265c1.44 3.232 4.127 5.781 7.448 7.048zM32 10.667c0 5.891-4.776 10.667-10.667 10.667s-10.667-4.776-10.667-10.667 4.776-10.667 10.667-10.667 10.667 4.776 10.667 10.667zM28 6.667c0-1.472-1.195-2.667-2.667-2.667s-2.667 1.195-2.667 2.667 1.195 2.667 2.667 2.667 2.667-1.195 2.667-2.667z"></path>
</svg>
<svg id="icon-list" width="32" height="32" viewBox="0 0 32 32" x="144" y="96">
<path d="M30.404 27.619h-21.398c-0.882 0-1.597-0.715-1.597-1.597s0.715-1.597 1.597-1.597h21.398c0.882 0 1.597 0.715 1.597 1.597s-0.714 1.597-1.596 1.597z"></path>
<path d="M30.404 17.597h-21.398c-0.882 0-1.597-0.715-1.597-1.597s0.715-1.597 1.597-1.597h21.398c0.882 0 1.597 0.715 1.597 1.597s-0.714 1.597-1.596 1.597z"></path>
<path d="M30.404 7.574h-21.398c-0.882 0-1.597-0.715-1.597-1.597s0.715-1.597 1.597-1.597h21.398c0.882 0 1.597 0.715 1.597 1.597s-0.714 1.597-1.596 1.597z"></path>
<path d="M4.289 6.101c0 1.184-0.96 2.144-2.144 2.144s-2.144-0.96-2.144-2.144c0-1.184 0.96-2.144 2.144-2.144s2.144 0.96 2.144 2.144z"></path>
<path d="M4.289 16c0 1.184-0.96 2.144-2.144 2.144s-2.144-0.96-2.144-2.144c0-1.184 0.96-2.144 2.144-2.144s2.144 0.96 2.144 2.144z"></path>
<path d="M4.289 25.899c0 1.184-0.96 2.144-2.144 2.144s-2.144-0.96-2.144-2.144c0-1.184 0.96-2.144 2.144-2.144s2.144 0.96 2.144 2.144z"></path>
</svg>
<svg id="icon-columns" width="32" height="32" viewBox="0 0 32 32" x="192" y="96">
<path d="M13.5 14.75h-12.25c-0.69 0-1.25 0.56-1.25 1.25s0.56 1.25 1.25 1.25h12.25c0.69 0 1.25-0.56 1.25-1.25s-0.56-1.25-1.25-1.25z"></path>
<path d="M13.5 29.5h-12.25c-0.69 0-1.25 0.56-1.25 1.25s0.56 1.25 1.25 1.25h12.25c0.69 0 1.25-0.56 1.25-1.25s-0.56-1.25-1.25-1.25z"></path>
<path d="M13.5 7.375h-12.25c-0.69 0-1.25 0.56-1.25 1.25s0.56 1.25 1.25 1.25h12.25c0.69 0 1.25-0.56 1.25-1.25s-0.56-1.25-1.25-1.25z"></path>
<path d="M18.5 2.5h12.25c0.69 0 1.25-0.56 1.25-1.25s-0.56-1.25-1.25-1.25h-12.25c-0.69 0-1.25 0.56-1.25 1.25s0.56 1.25 1.25 1.25z"></path>
<path d="M13.5 22.125h-12.25c-0.69 0-1.25 0.56-1.25 1.25s0.56 1.25 1.25 1.25h12.25c0.69 0 1.25-0.56 1.25-1.25s-0.56-1.25-1.25-1.25z"></path>
<path d="M30.75 14.75h-12.25c-0.69 0-1.25 0.56-1.25 1.25s0.56 1.25 1.25 1.25h12.25c0.69 0 1.25-0.56 1.25-1.25s-0.56-1.25-1.25-1.25z"></path>
<path d="M13.5 0h-12.25c-0.69 0-1.25 0.56-1.25 1.25s0.56 1.25 1.25 1.25h12.25c0.69 0 1.25-0.56 1.25-1.25s-0.56-1.25-1.25-1.25z"></path>
<path d="M30.75 7.375h-12.25c-0.69 0-1.25 0.56-1.25 1.25s0.56 1.25 1.25 1.25h12.25c0.69 0 1.25-0.56 1.25-1.25s-0.56-1.25-1.25-1.25z"></path>
<path d="M30.75 22.125h-12.25c-0.69 0-1.25 0.56-1.25 1.25s0.56 1.25 1.25 1.25h12.25c0.69 0 1.25-0.56 1.25-1.25s-0.56-1.25-1.25-1.25z"></path>
</svg>
<svg id="icon-task-check" width="32" height="32" viewBox="0 0 32 32" x="240" y="96">
<path d="M12.645 20.928l-0.948-0.928-3.403 3.476-2.052-1.936-0.931 0.945 3 2.848 4.333-4.405zM12.645 14.261l-0.948-0.928-3.403 3.476-2.052-1.936-0.931 0.945 3 2.848 4.333-4.405zM12.645 7.595l-0.948-0.928-3.403 3.476-2.052-1.936-0.931 0.945 3 2.848 4.333-4.405zM26.667 22.667h-10.667v1.333h10.667v-1.333zM26.667 16h-10.667v1.333h10.667v-1.333zM26.667 9.333h-10.667v1.333h10.667v-1.333zM32 2.667h-32v26.667h32v-26.667zM30.667 28h-29.333v-24h29.333v24z"></path>
</svg>
<svg id="icon-task-check-bold" width="32" height="32" viewBox="0 0 32 32" x="288" y="96">
<path d="M29.333 2.667v26.667h-26.667v-26.667h26.667zM32 0h-32v32h32v-32zM26.667 9.333h-10.667v1.333h10.667v-1.333zM26.667 16h-10.667v1.333h10.667v-1.333zM26.667 22.667h-10.667v1.333h10.667v-1.333zM12.645 7.595l-0.947-0.928-3.404 3.476-2.052-1.936-0.931 0.947 3 2.847 4.333-4.405zM12.645 14.261l-0.947-0.928-3.403 3.476-2.052-1.936-0.931 0.945 2.999 2.848 4.333-4.405zM12.645 20.928l-0.947-0.928-3.403 3.476-2.052-1.936-0.931 0.945 2.999 2.848 4.333-4.405z"></path>
</svg>
<svg id="icon-control-panel" width="32" height="32" viewBox="0 0 32 32" x="336" y="96">
<path d="M16 12c0.736 0 1.333 0.599 1.333 1.333s-0.597 1.333-1.333 1.333-1.333-0.599-1.333-1.333 0.597-1.333 1.333-1.333zM16 9.333c-2.209 0-4 1.791-4 4s1.791 4 4 4 4-1.791 4-4-1.791-4-4-4zM4 14.667c-2.209 0-4 1.791-4 4s1.791 4 4 4 4-1.791 4-4-1.791-4-4-4zM28 14.667c-2.209 0-4 1.791-4 4s1.791 4 4 4 4-1.791 4-4-1.791-4-4-4zM16 6.667c0.457 0 0.903 0.047 1.333 0.135v-4.135c0-0.736-0.596-1.333-1.333-1.333s-1.333 0.597-1.333 1.333v4.135c0.431-0.088 0.876-0.135 1.333-0.135zM28 12c0.457 0 0.903 0.047 1.333 0.135v-9.468c0-0.736-0.596-1.333-1.333-1.333s-1.333 0.597-1.333 1.333v9.468c0.431-0.088 0.876-0.135 1.333-0.135zM28 25.333c-0.457 0-0.903-0.047-1.333-0.135v4.135c0 0.736 0.596 1.333 1.333 1.333s1.333-0.597 1.333-1.333v-4.135c-0.431 0.088-0.876 0.135-1.333 0.135zM4 12c0.457 0 0.903 0.047 1.333 0.135v-9.468c0-0.736-0.596-1.333-1.333-1.333s-1.333 0.597-1.333 1.333v9.468c0.431-0.088 0.876-0.135 1.333-0.135zM16 20c-0.457 0-0.903-0.047-1.333-0.135v9.468c0 0.736 0.596 1.333 1.333 1.333s1.333-0.597 1.333-1.333v-9.468c-0.431 0.088-0.876 0.135-1.333 0.135zM4 25.333c-0.457 0-0.903-0.047-1.333-0.135v4.135c0 0.736 0.596 1.333 1.333 1.333s1.333-0.597 1.333-1.333v-4.135c-0.431 0.088-0.876 0.135-1.333 0.135z"></path>
</svg>
<svg id="icon-filter-panel" width="32" height="32" viewBox="0 0 32 32" x="384" y="96">
<path d="M13.099 4.731v0c-0.599-2.429-2.759-4.203-5.333-4.203s-4.734 1.773-5.325 4.165l-0.008 0.038h-2.433v2.676h2.433c0.599 2.429 2.759 4.203 5.333 4.203s4.735-1.773 5.325-4.165l0.008-0.038h18.901v-2.676zM2.262 6.069c0.003-0.307 0.034-0.605 0.090-0.894l-0.005 0.031c-0.048 0.256-0.079 0.554-0.085 0.858v0.005c0.006 0.309 0.037 0.607 0.090 0.897l-0.005-0.034c-0.051-0.258-0.082-0.556-0.085-0.861v-0.002zM7.772 9.158c-1.699 0-3.077-1.378-3.077-3.077s1.378-3.077 3.077-3.077c1.699 0 3.077 1.378 3.077 3.077v0c-0.007 1.697-1.38 3.070-3.076 3.077h-0.001zM13.197 6.945c0.048-0.256 0.079-0.554 0.085-0.858v-0.005c-0.006-0.309-0.037-0.607-0.090-0.897l0.005 0.034c0.051 0.258 0.082 0.556 0.085 0.861v0.002c-0.004 0.303-0.034 0.597-0.090 0.882l0.005-0.031z"></path>
<path d="M21.358 14.644c-0.599-2.429-2.759-4.203-5.333-4.203s-4.735 1.773-5.325 4.165l-0.008 0.038h-10.618v2.651h10.63c0.599 2.429 2.759 4.203 5.333 4.203s4.735-1.773 5.325-4.165l0.008-0.038h10.63v-2.676h-10.642zM10.509 15.982c0.003-0.307 0.034-0.605 0.090-0.894l-0.005 0.031c-0.048 0.256-0.079 0.554-0.085 0.858v0.005c0.006 0.309 0.037 0.607 0.090 0.897l-0.005-0.034c-0.046-0.253-0.073-0.543-0.073-0.84 0-0.008 0-0.017 0-0.025v0.001zM16.018 19.059c-1.699 0-3.077-1.378-3.077-3.077s1.378-3.077 3.077-3.077c1.699 0 3.077 1.378 3.077 3.077v0c0 0 0 0 0 0 0 1.698-1.369 3.075-3.064 3.089h-0.001zM21.443 16.845c0.048-0.256 0.079-0.554 0.085-0.858v-0.005c-0.006-0.309-0.037-0.607-0.090-0.897l0.005 0.034c0.055 0.26 0.087 0.558 0.087 0.864s-0.032 0.604-0.092 0.892l0.005-0.028z"></path>
<path d="M24.398 20.385c-2.577 0.002-4.738 1.777-5.332 4.171l-0.008 0.038h-18.986v2.676h18.986c0.599 2.429 2.759 4.203 5.333 4.203s4.735-1.773 5.325-4.165l0.008-0.038h2.274v-2.676h-2.274c-0.6-2.427-2.756-4.2-5.326-4.208h-0.001zM18.84 25.894c0.003-0.307 0.034-0.605 0.090-0.894l-0.005 0.031c-0.055 0.26-0.087 0.558-0.087 0.864s0.032 0.604 0.092 0.892l-0.005-0.028c-0.051-0.258-0.082-0.556-0.085-0.861v-0.002zM24.35 28.971c-1.699 0-3.077-1.378-3.077-3.077s1.378-3.077 3.077-3.077c1.699 0 3.077 1.378 3.077 3.077v0c0 0 0 0 0 0.001 0 1.685-1.349 3.055-3.025 3.089h-0.003zM29.859 25.894c-0.003 0.307-0.034 0.605-0.090 0.894l0.005-0.031c0.055-0.26 0.087-0.558 0.087-0.864s-0.032-0.604-0.092-0.892l0.005 0.028c0.066 0.251 0.113 0.546 0.133 0.849l0.001 0.015z"></path>
</svg>
<svg id="icon-filters" width="32" height="32" viewBox="0 0 32 32" x="432" y="96">
<path d="M6.7 2.535l1.597 2.616h-7.654l9.112 15.287v9.026l5.060-3.034v-5.993l1.297-2.144 0.268 0.45v9.552l5.36-3.216v-6.357l9.616-16.188zM12.757 19.881v5.36l-1.018 0.611v-6.003l-7.536-12.671h5.296l5.435 9.112zM19.564 18.133v5.703l-1.072 0.611v-6.314l-7.976-13.454h17.152z"></path>
</svg>
<svg id="icon-filter-outline" width="32" height="32" viewBox="0 0 32 32" x="480" y="96">
<path d="M20 26.507c0.053 0.4-0.080 0.827-0.387 1.107-0.52 0.52-1.36 0.52-1.88 0l-5.347-5.347c-0.307-0.307-0.44-0.72-0.387-1.107v-6.827l-6.387-8.173c-0.453-0.573-0.347-1.413 0.227-1.867 0.253-0.187 0.533-0.293 0.827-0.293v0h18.667c0.293 0 0.573 0.107 0.827 0.293 0.573 0.453 0.68 1.293 0.227 1.867l-6.387 8.173v12.173zM9.387 6.667l5.28 6.747v7.36l2.667 2.667v-10.040l5.28-6.733h-13.227z"></path>
</svg>
<svg id="icon-filter-remove-outline" width="32" height="32" viewBox="0 0 32 32" x="528" y="96">
<path d="M19.64 27.773l3.8-3.773-3.8-3.773 1.893-1.88 3.8 3.747 3.733-3.747 1.893 1.88-3.747 3.773 3.747 3.773-1.893 1.88-3.733-3.787-3.8 3.787-1.893-1.88zM17.333 26.507c0.053 0.4-0.080 0.827-0.387 1.107-0.52 0.52-1.36 0.52-1.88 0l-5.347-5.347c-0.307-0.307-0.44-0.72-0.387-1.107v-6.827l-6.387-8.173c-0.453-0.573-0.347-1.413 0.227-1.867 0.253-0.187 0.533-0.293 0.827-0.293v0h18.667c0.293 0 0.573 0.107 0.827 0.293 0.573 0.453 0.68 1.293 0.227 1.867l-6.387 8.173v12.173zM6.72 6.667l5.28 6.747v7.36l2.667 2.667v-10.040l5.28-6.733h-13.227z"></path>
</svg>
<svg id="icon-filter-remove" width="32" height="32" viewBox="0 0 32 32" x="576" y="96">
<path d="M19.68 27.773l3.787-3.773-3.787-3.773 1.88-1.88 3.773 3.747 3.773-3.747 1.88 1.88-3.747 3.773 3.747 3.773-1.88 1.88-3.773-3.787-3.773 3.787-1.88-1.88zM16 16v10.507c0.053 0.4-0.080 0.827-0.387 1.107-0.52 0.52-1.36 0.52-1.88 0l-2.68-2.68c-0.307-0.307-0.44-0.72-0.387-1.107v-7.827h-0.040l-7.68-9.84c-0.453-0.573-0.347-1.413 0.227-1.867 0.253-0.187 0.533-0.293 0.827-0.293v0h18.667c0.293 0 0.573 0.107 0.827 0.293 0.573 0.453 0.68 1.293 0.227 1.867l-7.68 9.84h-0.040z"></path>
</svg>
<svg id="icon-edit" width="32" height="32" viewBox="0 0 32 32" x="624" y="96">
<path d="M18.819 6.247c-0.125-0.125-0.312-0.25-0.5-0.25-0.25 0-0.437 0.125-0.562 0.25l-16.929 16.929-0.812 7.122c-0.062 0.5 0.062 0.937 0.437 1.249 0.312 0.375 0.75 0.5 1.249 0.437l7.122-0.812 16.929-16.929c0.125-0.125 0.25-0.312 0.25-0.562 0-0.187-0.125-0.375-0.25-0.5l-6.934-6.934zM31.125 4.623c0.562 0.625 0.875 1.312 0.875 2.124 0 0.875-0.312 1.562-0.875 2.124l-2.874 2.874c-0.187 0.187-0.375 0.25-0.562 0.25-0.25 0-0.375-0.062-0.5-0.25l-6.934-6.934c-0.187-0.125-0.25-0.25-0.25-0.5 0-0.187 0.062-0.375 0.25-0.562l2.874-2.874c0.562-0.562 1.249-0.875 2.124-0.875 0.812 0 1.499 0.312 2.124 0.875l3.748 3.748z"></path>
</svg>
<svg id="icon-edit-line" width="32" height="32" viewBox="0 0 32 32" x="672" y="96">
<path d="M18.771 5.643l-16.853 16.852-1.917 9.505 9.503-1.917 16.855-16.853-7.587-7.587zM4.945 25.5l-1.133-1.133 14.855-14.833 1.132 1.132-14.853 14.835zM7.623 28.177l-1.133-1.133 14.855-14.833 1.133 1.133-14.855 14.833zM32 7.585l-3.755 3.757-7.588-7.588 3.755-3.755 7.588 7.585z"></path>
</svg>
<svg id="icon-edit-card" width="32" height="32" viewBox="0 0 32 32" x="720" y="96">
<path d="M23.999 19.267v8.733h-21.333v-16h8.991l2.637-2.667h-14.295v21.333h26.667v-14.097l-2.667 2.697zM25.963 5.113l2.276 2.276-12.375 12.504-2.973 0.629 0.683-2.892 12.389-12.517zM25.953 1.333l-14.805 14.955-1.815 7.712 7.864-1.664 14.804-14.957-6.048-6.045z"></path>
</svg>
<svg id="icon-edit-doc" width="32" height="32" viewBox="0 0 32 32" x="0" y="144">
<path d="M17.964 9.595c-0.567-0.585-0.535-1.503 0.047-2.069l5.948-5.768c0.291-0.281 0.664-0.424 1.033-0.424 0.376 0 0.751 0.147 1.035 0.441l-8.063 7.82zM8.185 24.289c-0.123 0.119-0.185 0.277-0.185 0.436 0 0.333 0.271 0.608 0.607 0.608 0.153 0 0.305-0.056 0.424-0.171l0.997-0.972-0.844-0.872-0.999 0.971zM19.135 15.647l-3.427 3.308c-1.099 1.065-2.143 1.771-3.607 2.387 0.661-1.445 1.4-2.469 2.497-3.533l3.425-3.305-1.399-1.444-3.419 3.313c-1.837 1.781-2.773 3.507-3.64 5.916l1.511 1.559c2.432-0.791 4.187-1.673 6.024-3.455l3.417-3.315-1.384-1.431zM29.639 5.989l-7.369 7.145-1.652-1.705 7.372-7.148c1.099-1.071 2.783 0.608 1.649 1.708zM28.781 1.941c-0.763 0-1.541 0.279-2.187 0.904l-8.805 8.54 4.435 4.579 8.805-8.537c0.647-0.627 0.971-1.459 0.971-2.292 0-1.901-1.575-3.193-3.219-3.193zM24 17.955v10.045h-21.333v-16h10.684l2.744-2.667h-16.095v21.333h26.667v-15.297l-2.667 2.585z"></path>
</svg>
<svg id="icon-edit-list" width="32" height="32" viewBox="0 0 32 32" x="48" y="144">
<path d="M12 25.333h-5.333v-2.667h5.333v2.667zM15.928 19.952l4.143 4.14-5.483 1.241 1.34-5.381zM32 12.167l-10.531 10.661-4.269-4.269 10.531-10.66 4.269 4.268zM24 24.060v5.273h-21.333v-26.667h9.816c5.541 0 3.517 8 3.517 8s3.084-0.847 5.423-0.177l2.603-2.635c-2.952-3.743-7.683-7.855-10.44-7.855h-13.585v32h26.667v-10.64l-2.667 2.7z"></path>
</svg>
<svg id="icon-list-edit" width="32" height="32" viewBox="0 0 32 32" x="96" y="144">
<path d="M21.083 6.425c-0.44-0.455-0.416-1.169 0.037-1.609l4.625-4.487c0.227-0.219 0.516-0.329 0.804-0.329 0.292 0 0.584 0.113 0.805 0.343l-6.272 6.083zM13.476 17.855c-0.093 0.092-0.143 0.216-0.143 0.34 0 0.259 0.211 0.472 0.472 0.472 0.119 0 0.237-0.044 0.329-0.133l0.777-0.756-0.657-0.679-0.779 0.756zM20.041 9.119l-2.659 2.577c-1.429 1.385-2.159 2.728-2.832 4.601l1.175 1.212c1.892-0.615 3.256-1.301 4.685-2.688l2.659-2.579-3.028-3.124zM27.796 1.175l-6.849 6.643 3.448 3.561 6.851-6.64c0.503-0.488 0.755-1.135 0.755-1.783 0-2.165-2.624-3.315-4.204-1.781zM12 17.333h-5.333v1.333h5.333v-1.333zM24 15.533v2.524c0 5.476-8 3.276-8 3.276s2.024 8-3.517 8h-9.816v-26.667h16.839l2.749-2.667h-22.255v32h13.585c4.217 0 13.081-9.631 13.081-12.819v-6.249l-2.667 2.601z"></path>
</svg>
<svg id="icon-clipboard-data" width="32" height="32" viewBox="0 0 32 32" x="144" y="144">
<path d="M26.667 32h-26.667v-29.333h4c1.639 0 2.907-1.445 4-2.667h10.667c1.093 1.221 2.361 2.667 4 2.667h4v12h-2.667v-9.333h-5.333l-2.667 2.667h-5.197l-2.803-2.667h-5.333v24h21.333v-6.667h2.667v9.333zM13.333 26.667h-8v-1.333h8v1.333zM13.333 24h-8v-1.333h8v1.333zM21.333 17.333h10.667v2.667h-10.667v4l-6.667-5.333 6.667-5.333v4zM13.333 21.333h-8v-1.333h8v1.333zM13.333 18.667h-8v-1.333h8v1.333zM13.333 16h-8v-1.333h8v1.333zM13.333 13.333h-8v-1.333h8v1.333zM12 4c0 0.736 0.597 1.333 1.333 1.333s1.333-0.597 1.333-1.333-0.597-1.333-1.333-1.333-1.333 0.597-1.333 1.333z"></path>
</svg>
<svg id="icon-clipboard-time" width="32" height="32" viewBox="0 0 32 32" x="192" y="144">
<path d="M17.871 32h-17.871v-29.333h4c1.641 0 2.908-1.445 4-2.667h10.667c1.095 1.221 2.363 2.667 4 2.667h4v12.2c-0.647-0.131-1.316-0.2-2-0.2l-0.667 0.021v-9.355h-5.333l-2.667 2.667h-5.196l-2.804-2.667h-5.333v24h13.155c0.529 1.001 1.225 1.903 2.049 2.667zM24.667 17.333c-4.048 0-7.333 3.285-7.333 7.333s3.285 7.333 7.333 7.333c4.047 0 7.333-3.285 7.333-7.333s-3.287-7.333-7.333-7.333zM24.667 20c2.575 0 4.667 2.091 4.667 4.667s-2.092 4.667-4.667 4.667c-2.576 0-4.667-2.091-4.667-4.667s2.091-4.667 4.667-4.667zM28 25.333v-1.333h-2.667v-2.667h-1.333v4h4zM7.799 19.931l3.115-3.18 1.087 1.077-4.181 4.256-2.485-2.368 1.067-1.097 1.399 1.312zM16 21.333v-1.333h-2.667v1.333h2.667zM18.667 18.667v-1.333h-5.333v1.333h5.333zM7.799 13.3l3.115-3.179 1.087 1.077-4.181 4.256-2.485-2.368 1.067-1.097 1.399 1.311zM18.667 14.667v-1.333h-5.333v1.333h5.333zM18.667 12v-1.333h-5.333v1.333h5.333zM12 4c0 0.736 0.599 1.333 1.333 1.333 0.737 0 1.333-0.597 1.333-1.333s-0.596-1.333-1.333-1.333c-0.735 0-1.333 0.597-1.333 1.333z"></path>
</svg>
<svg id="icon-clipboard-file" width="32" height="32" viewBox="0 0 32 32" x="240" y="144">
<path d="M21.333 13.333c4.625 0 2.667 5.333 2.667 5.333s5.333-2.125 5.333 2.667v8h-13.333v-16h5.333zM22.436 10.667h-9.103v21.333h18.667v-11.789c0-3.189-5.348-9.544-9.564-9.544zM10.667 26.667h-8v-21.333h5.333l2.803 2.667h5.197l2.667-2.667h5.333v2.86c0.875 0.191 1.769 0.521 2.667 1.005v-6.532h-4c-1.639 0-2.907-1.445-4-2.667h-10.667c-1.093 1.221-2.361 2.667-4 2.667h-4v26.667h10.667v-2.667zM13.333 2.667c0.737 0 1.333 0.597 1.333 1.333s-0.596 1.333-1.333 1.333-1.333-0.597-1.333-1.333 0.596-1.333 1.333-1.333zM18.667 26.667h8v-1.333h-8v1.333zM18.667 24h8v-1.333h-8v1.333zM18.667 21.333h8v-1.333h-8v1.333z"></path>
</svg>
<svg id="icon-clipboard-chart-round" width="32" height="32" viewBox="0 0 32 32" x="288" y="144">
<path d="M29.333 2.667v29.333h-26.667v-29.333h4c1.639 0 2.907-1.445 4-2.667h10.667c1.093 1.221 2.361 2.667 4 2.667h4zM14.667 4c0 0.736 0.597 1.333 1.333 1.333s1.333-0.597 1.333-1.333-0.597-1.333-1.333-1.333-1.333 0.597-1.333 1.333zM26.667 5.333h-5.333l-2.667 2.667h-5.197l-2.803-2.667h-5.333v24h21.333v-24zM16 12c-3.681 0-6.667 2.985-6.667 6.667s2.985 6.667 6.667 6.667 6.667-2.985 6.667-6.667c0-3.683-2.984-6.667-6.667-6.667zM16 23.733c-2.793 0-5.067-2.273-5.067-5.067s2.273-5.067 5.067-5.067v5.067h5.067c0 2.793-2.273 5.067-5.067 5.067z"></path>
</svg>
<svg id="icon-clipboard-list" width="32" height="32" viewBox="0 0 32 32" x="336" y="144">
<path d="M29.333 4v28h-26.667v-28h6.223l-3.556 3.744v21.589h21.333v-21.589l-3.479-3.744h6.145zM24.472 9.333l-4.416-4.759v-0.547c0.001-2.224-1.803-4.028-4.028-4.028-2.223 0-4.028 1.776-4.028 4l0.001 0.575-4.397 4.759h16.868zM16 2.667c0.736 0 1.333 0.597 1.333 1.333s-0.597 1.333-1.333 1.333-1.333-0.597-1.333-1.333 0.597-1.333 1.333-1.333zM9.333 22.667h13.333v1.333h-13.333v-1.333zM9.333 21.333h13.333v-1.333h-13.333v1.333zM9.333 18.667h13.333v-1.333h-13.333v1.333zM9.333 16h13.333v-1.333h-13.333v1.333z"></path>
</svg>
<svg id="icon-clipboard-edit" width="32" height="32" viewBox="0 0 32 32" x="384" y="144">
<path d="M12 25.333h-5.333v-2.667h5.333v2.667zM15.928 19.952l4.143 4.14-5.483 1.241 1.34-5.381zM24 7.881l2.667-2.699v-1.183h-6.145l3.479 3.744v0.137zM24 24.060v5.273h-21.333v-21.589l3.555-3.744h-6.221v28h26.667v-10.64l-2.667 2.7zM4.937 9.333h16.868l-4.416-4.759v-0.547c0.001-2.224-1.803-4.028-4.028-4.028-2.223 0-4.028 1.776-4.028 4l0.001 0.575-4.397 4.759zM13.333 2.667c0.737 0 1.333 0.597 1.333 1.333s-0.596 1.333-1.333 1.333-1.333-0.597-1.333-1.333 0.596-1.333 1.333-1.333zM32 12.167l-10.531 10.661-4.269-4.269 10.531-10.66 4.269 4.268z"></path>
</svg>
<svg id="icon-search-file" width="32" height="32" viewBox="0 0 32 32" x="432" y="144">
<path d="M23.767 32h-21.1v-32h13.585c4.216 0 13.081 9.631 13.081 12.819v13.428l-2.667-2.667v-9.637c0-5.476-8-3.276-8-3.276s2.023-8-3.517-8h-9.816v26.667h15.767l2.667 2.667zM21.065 25.523l6.383 6.477 1.885-1.885-6.401-6.496c0.676-1.043 1.068-2.285 1.068-3.619 0-3.68-2.987-6.667-6.667-6.667s-6.667 2.987-6.667 6.667c0 3.68 2.987 6.667 6.667 6.667 1.383 0 2.667-0.421 3.732-1.144zM17.333 16c2.208 0 4 1.792 4 4s-1.792 4-4 4-4-1.792-4-4 1.792-4 4-4z"></path>
</svg>
<svg id="icon-refresh-file" width="32" height="32" viewBox="0 0 32 32" x="480" y="144">
<path d="M29.333 32h-26.667v-32h13.585c4.216 0 13.081 9.631 13.081 12.819v19.181zM15.149 2.667h-9.816v26.667h21.333v-15.391c0-5.476-8-3.276-8-3.276s2.023-8-3.517-8zM16 18.667h-6.667l1.333-6.667 1.86 2.325c1.013-0.623 2.197-0.992 3.473-0.992 3.68 0 6.667 2.987 6.667 6.667s-2.987 6.667-6.667 6.667c-3.309 0-6.059-2.416-6.579-5.579l2.623-0.489c0.289 1.924 1.952 3.401 3.956 3.401 2.208 0 4-1.793 4-4s-1.792-4-4-4c-0.644 0-1.247 0.164-1.785 0.435l1.785 2.232z"></path>
</svg>
<svg id="icon-add-file" width="32" height="32" viewBox="0 0 32 32" x="528" y="144">
<path d="M30.667 22.667h-4v-4h-2.667v4h-4v2.667h4v4h2.667v-4h4v-2.667zM21.333 29.333v2.667h-20v-32h13.585c4.217 0 13.081 9.631 13.081 12.819v3.181h-2.667v-2.057c0-5.476-8-3.276-8-3.276s2.024-8-3.517-8h-9.816v26.667h17.333z"></path>
</svg>
<svg id="icon-list-check" width="32" height="32" viewBox="0 0 32 32" x="576" y="144">
<path d="M5.333 29.333v-26.667h21.333v15.391c0 5.476-8 3.276-8 3.276s2.024 8-3.517 8h-9.816zM29.333 19.181v-19.181h-26.667v32h13.585c4.217 0 13.081-9.631 13.081-12.819zM14.711 20c3.011-5.4 5.101-8.173 7.956-10.665l-0.371-0.855c-3.461 2.155-5.324 3.777-8.141 6.975-1.5-1.069-2.347-1.559-3.68-2.205l-1.141 1.056c2.281 2.113 3.52 3.508 5.377 5.695z"></path>
</svg>
<svg id="icon-info-file" width="32" height="32" viewBox="0 0 32 32" x="624" y="144">
<path d="M5.333 29.333v-26.667h21.333v15.391c0 5.476-8 3.276-8 3.276s2.024 8-3.517 8h-9.816zM29.333 19.181v-19.181h-26.667v32h13.585c4.217 0 13.081-9.631 13.081-12.819zM13.616 17.821c0.617-1.959 1.788-4.305 1.995-4.9 0.3-0.861-0.231-1.245-1.905 0.228l-0.372-0.7c1.909-2.079 5.843-2.547 4.505 0.672-0.836 2.011-1.435 3.367-1.776 4.413-0.499 1.525 0.76 0.907 1.992-0.231 0.168 0.275 0.223 0.361 0.391 0.677-2.737 2.604-5.773 2.833-4.829-0.16zM18.809 8.875c-0.583 0.496-1.445 0.485-1.928-0.024s-0.403-1.323 0.18-1.819c0.583-0.496 1.445-0.484 1.928 0.024 0.481 0.509 0.403 1.323-0.18 1.819z"></path>
</svg>
<svg id="icon-files" width="32" height="32" viewBox="0 0 32 32" x="672" y="144">
<path d="M17.333 8c4.625 0 2.667 6.667 2.667 6.667s6.667-2.125 6.667 2.667v12h-16v-21.333h6.667zM18.436 5.333h-10.436v26.667h21.333v-15.789c0-3.189-6.681-10.877-10.897-10.877zM18.667 2.667l-4-2.667h-12v29.333h2.667v-26.667h13.333z"></path>
</svg>
<svg id="icon-note-fill" width="32" height="32" viewBox="0 0 32 32" x="720" y="144">
<path d="M9.333 29.333v-21.333h18.667v10.057c0 5.476-8 3.276-8 3.276s2.024 8-3.517 8h-7.149zM30.667 19.181v-13.848h-24v26.667h10.919c4.217 0 13.081-9.631 13.081-12.819zM17.333 21.333h-5.333v-1.333h5.333v1.333zM25.333 16h-13.333v1.333h13.333v-1.333zM25.333 12h-13.333v1.333h13.333v-1.333zM26.667 2.667h-22.667v25.333h-2.667v-28h25.333v2.667z"></path>
</svg>
<svg id="icon-note" width="32" height="32" viewBox="0 0 32 32" x="0" y="192">
<path d="M8 29.333v-21.333h21.333v10.057c0 5.476-8 3.276-8 3.276s2.024 8-3.517 8h-9.816zM32 19.181v-13.848h-26.667v26.667h13.585c4.217 0 13.081-9.631 13.081-12.819zM18.667 21.333h-6.667v-1.333h6.667v1.333zM25.333 16h-13.333v1.333h13.333v-1.333zM25.333 12h-13.333v1.333h13.333v-1.333zM29.333 4h-25.333v25.333h-1.333v-26.667h26.667v1.333zM26.667 1.333h-25.333v25.333h-1.333v-26.667h26.667v1.333z"></path>
</svg>
<svg id="icon-doc-signed" width="32" height="32" viewBox="0 0 32 32" x="48" y="192">
<path d="M27.077 1.231h-22.154c-0.51 0-0.923 0.413-0.923 0.923v22.648c0 0.12 0.025 0.24 0.071 0.353s0.114 0.215 0.199 0.3l5.044 5.044c0.085 0.085 0.187 0.152 0.3 0.199s0.233 0.071 0.353 0.071h17.109c0.51 0 0.923-0.413 0.923-0.923v-27.692c0-0.51-0.413-0.923-0.923-0.923zM9.044 27.618l-1.893-1.893h1.893v1.893zM26.154 28.923h-15.263v-4.121c0-0.51-0.413-0.923-0.923-0.923h-4.121v-20.802h20.308v25.846z"></path>
<path d="M8.676 6.769h6.632c0.34 0 0.615-0.275 0.615-0.615s-0.275-0.615-0.615-0.615h-6.632c-0.34 0-0.615 0.275-0.615 0.615s0.275 0.615 0.615 0.615z"></path>
<path d="M8.676 9.231h3.316c0.34 0 0.615-0.275 0.615-0.615s-0.275-0.615-0.615-0.615h-3.316c-0.34 0-0.615 0.275-0.615 0.615s0.275 0.615 0.615 0.615z"></path>
<path d="M13.385 8.615c0 0.34 0.275 0.615 0.615 0.615h4c0.34 0 0.615-0.275 0.615-0.615s-0.275-0.615-0.615-0.615h-4c-0.34 0-0.615 0.275-0.615 0.615z"></path>
<path d="M8.615 19.385h14.769c0.34 0 0.615-0.275 0.615-0.615v-7.385c0-0.34-0.275-0.615-0.615-0.615h-14.769c-0.34 0-0.615 0.275-0.615 0.615v7.385c0 0.34 0.275 0.615 0.615 0.615zM20.308 13.577v1.231h-2v-1.231h2zM18.308 12.962v-0.962h2v0.962h-2zM18.308 16.654v-1.231h2v1.231h-2zM20.308 17.269v0.885h-2v-0.885h2zM9.231 15.423h8.462v1.231h-8.462v-1.231zM20.923 15.423h1.846v1.231h-1.846v-1.231zM22.769 14.808h-1.846v-1.231h1.846v1.231zM17.692 14.808h-8.462v-1.231h8.462v1.231zM9.231 17.269h8.462v0.885h-8.462v-0.885zM20.923 18.154v-0.885h1.846v0.885h-1.846zM22.769 12.962h-1.846v-0.962h1.846v0.962zM17.692 12v0.962h-8.462v-0.962h8.462z"></path>
<path d="M20.698 20.123c-1.072 0-2.008 0.569-2.54 1.416h-0.866c-0.34 0-0.615 0.275-0.615 0.615s0.275 0.615 0.615 0.615h0.437c-0.014 0.119-0.036 0.236-0.036 0.359 0 1.657 1.349 3.006 3.006 3.006s3.005-1.349 3.005-3.006-1.348-3.006-3.005-3.006zM20.698 25.519c-1.318 0-2.391-1.072-2.391-2.391 0-0.123 0.018-0.241 0.036-0.359h0.431c-0.022 0.117-0.036 0.236-0.036 0.359 0 1.081 0.879 1.959 1.96 1.959s1.959-0.879 1.959-1.959-0.879-1.96-1.959-1.96c-0.425 0-0.816 0.139-1.137 0.37h-0.635c0.438-0.488 1.066-0.8 1.772-0.8 1.318 0 2.39 1.072 2.39 2.391s-1.072 2.391-2.39 2.391zM20.615 22.769c0.34 0 0.615-0.275 0.615-0.615 0-0.101-0.030-0.193-0.074-0.277 0.514 0.189 0.885 0.673 0.885 1.252 0 0.74-0.603 1.344-1.344 1.344s-1.344-0.603-1.344-1.344c0-0.127 0.039-0.242 0.073-0.359h1.189z"></path>
<path d="M15.308 21.538h-6.632c-0.34 0-0.615 0.275-0.615 0.615s0.275 0.615 0.615 0.615h6.632c0.34 0 0.615-0.275 0.615-0.615s-0.275-0.615-0.615-0.615z"></path>
</svg>
<svg id="icon-construction-map" width="32" height="32" viewBox="0 0 32 32" x="96" y="192">
<path d="M32 30.667h-26.667c-2.944 0-5.333-2.389-5.333-5.333v-20.925c0.417-1.428 1.713-3.075 4-3.075 2.473 0 3.692 1.789 3.993 3.083l0.007 2.251h24v24zM29.333 9.333h-21.333v14.667s-0.793-1.333-2.563-1.333c-1.472 0-2.771 1.195-2.771 2.667s1.195 2.667 2.667 2.667h24v-18.667zM26.667 25.333h-16v-13.333h16v13.333zM16 13.333h-4v10.667h13.333v-5.333h-2.667v4h-1.333v-4h-4v4h-1.333v-9.333zM5.333 4.881c-0.311-1.228-2.409-1.223-2.667 0v15.996c0.544-0.561 1.844-0.965 2.667-0.877v-15.119zM17.333 13.333v4h8v-4h-8z"></path>
</svg>
<svg id="icon-documents" width="32" height="32" viewBox="0 0 32 32" x="144" y="192">
<path d="M28.748 21.333l-1.6 8h-22.295l-1.6-8h25.495zM32 18.667h-32l2.667 13.333h26.667l2.667-13.333zM27.408 2.665l0.585-2.665h-23.992l0.585 2.665h22.821zM29.675 8l0.493-2.667h-28.341l0.493 2.667h27.355zM3.367 16l-0.34-2.667h25.933l-0.349 2.667h2.689l0.7-5.333h-32l0.679 5.333h2.688z"></path>
</svg>
<svg id="icon-documents-case" width="32" height="32" viewBox="0 0 32 32" x="192" y="192">
<path d="M8.919 6.667h14.163l0.444 1.333h-15.052l0.445-1.333zM7.585 10.667h16.829l-0.444-1.333h-15.943l-0.443 1.333zM9.807 4l-0.443 1.333h13.273l-0.445-1.333h-12.385zM5.476 10.667l2.667-8h15.713l2.667 8h2.811l-3.555-10.667h-19.557l-3.555 10.667h2.809zM28.701 25.333l-0.859 4h-23.687l-0.859-4h25.404zM32 22.667h-32l2 9.333h28l2-9.333zM18.667 17.333h-5.333v1.333h5.333v-1.333zM18.667 26.667h-5.333v1.333h5.333v-1.333zM4.156 20l-0.859-4h25.404l-0.859 4h2.728l1.429-6.667h-32l1.428 6.667h2.728z"></path>
</svg>
<svg id="icon-documents-archive" width="32" height="32" viewBox="0 0 32 32" x="240" y="192">
<path d="M28.852 18.667l-1.777 10.667h-22.149l-1.777-10.667h25.704zM32 16h-32l2.667 16h26.667l2.667-16zM6.365 13.333l3.556-10.667h12.156l3.556 10.667h2.809l-4.443-13.333h-16l-4.444 13.333h2.809zM10.696 6.667l-0.444 1.333h11.495l-0.444-1.333h-10.607zM9.807 9.333l-0.444 1.333h13.273l-0.444-1.333h-12.385zM23.527 13.333l-0.444-1.333h-14.165l-0.444 1.333h15.053zM11.585 4l-0.444 1.333h9.717l-0.445-1.333h-8.828zM20 21.333h-8v2.667h8v-2.667z"></path>
</svg>
<svg id="icon-documents-box" width="32" height="32" viewBox="0 0 32 32" x="288" y="192">
<path d="M32 29.333h-32v-13.352l7.303-13.315h17.425l7.272 13.315v13.352zM30.667 17.333h-29.333v10.667h29.333v-10.667zM8.092 4l-6.581 12h28.98l-6.553-12h-15.845zM25.333 12v1.333h-18.667v-1.333h18.667zM24 9.333v1.333h-16v-1.333h16zM22.667 6.667v1.333h-13.333v-1.333h13.333z"></path>
</svg>
<svg id="icon-paperclip" width="32" height="32" viewBox="0 0 32 32" x="336" y="192">
<path d="M28.781 13.947l-13.4 13.433c-2.6 2.599-6.829 2.599-9.428 0s-2.6-6.829 0-9.429l14.171-14.113c1.56-1.56 4.097-1.56 5.657 0 1.559 1.56 1.56 4.096 0 5.656l-11.343 11.285c-0.52 0.52-1.365 0.52-1.885 0s-0.52-1.365 0-1.885l9.457-9.4-1.887-1.885-9.457 9.399c-1.563 1.563-1.561 4.097 0 5.659s4.095 1.561 5.656 0l11.343-11.285c1.303-1.303 1.952-3.008 1.952-4.715 0-3.692-2.995-6.665-6.667-6.665-1.707 0-3.412 0.651-4.715 1.953l-14.169 14.111c-1.821 1.824-2.733 4.212-2.733 6.601 0 5.151 4.173 9.333 9.333 9.333 2.389 0 4.777-0.912 6.6-2.733l13.4-13.433-1.885-1.885z"></path>
</svg>
<svg id="icon-box-opened" width="32" height="32" viewBox="0 0 32 32" x="384" y="192">
<path d="M15.333 30.667l-11.333-6.047v-5.271l7.2 4.163 4.133-4.541v11.696zM16.667 30.665v-11.741l4.216 4.457 7.117-3.944v5.183l-11.333 6.045zM2.881 17.165l-2.881-1.659 4-4.403-4-3.764 11.624-6.007 4.287 3.18 4.433-3.18 11.656 6.081-3.993 3.695 3.993 4.591-10.86 6.013-4.464-4.721 9.888-5.283-10.563-5.829-10.564 5.829 9.896 5.249v0.032l-4.396 4.829-8.056-4.655z"></path>
</svg>
<svg id="icon-data-cube" width="32" height="32" viewBox="0 0 32 32" x="432" y="192">
<path d="M24 13.375v-8.564l-8.048-4.811-7.952 4.759v8.665l-8 4.299v9.621l8.181 4.656 7.819-4.524 7.819 4.524 8.181-4.656v-9.569l-8-4.4zM22.476 13.423l-5.761 3.179v-6.608l5.761-3.385v6.815zM15.949 1.809l5.696 3.461-5.691 3.345-5.568-3.405 5.563-3.401zM2.387 18.175l6.371-3.373 5.649 3.223-6.224 3.556-5.796-3.405zM8.943 22.957l6.296-3.596v6.741l-6.296 3.676v-6.821zM17.625 17.963l5.663-3.187 6.359 3.459-5.823 3.345-6.199-3.617zM30.476 26.393l-5.895 3.385v-6.821l5.895-3.384v6.82z"></path>
</svg>
<svg id="icon-list-paperclip" width="32" height="32" viewBox="0 0 32 32" x="480" y="192">
<path d="M16.493 7.172l-7.52 7.52c-0.873 0.873-2.020 1.309-3.165 1.309-2.473 0-4.475-1.997-4.475-4.475 0-1.147 0.436-2.295 1.308-3.167l7.387-7.385c0.649-0.649 1.5-0.975 2.353-0.975 2.941 0 4.451 3.581 2.353 5.679l-6.559 6.559c-0.845 0.845-2.22 0.845-3.064 0-0.845-0.844-0.845-2.219 0-3.064l5.293-5.293 1.104 1.104-5.293 5.293c-0.237 0.236-0.237 0.62 0 0.856 0.236 0.237 0.62 0.237 0.856 0l6.559-6.557c1.652-1.657-0.848-4.149-2.497-2.499l-7.387 7.387c-1.137 1.137-1.137 2.987 0 4.125 1.139 1.136 2.987 1.136 4.124 0l7.52-7.52 1.103 1.103zM17.343 0c0.545 0.812 0.847 1.56 0.972 2.667h9.685v15.391c0 5.476-8 3.276-8 3.276s2.024 8-3.517 8h-9.816v-10.749c-0.84 0.1-1.333 0.173-2.667-0.177v13.593h13.585c4.217 0 13.081-9.631 13.081-12.819v-19.181h-13.324zM24 8h-4.564l-1.333 1.333h5.897v-1.333zM24 12h-8.564l-1.333 1.333h9.897v-1.333zM24 16h-12.564l-0.577 0.577c-0.283 0.284-0.599 0.527-0.919 0.756h14.060v-1.333z"></path>
</svg>
<svg id="icon-lists-paperclip" width="32" height="32" viewBox="0 0 32 32" x="528" y="192">
<path d="M8 29.333v2.667h22.667v-14.416l-2.667-3.667v15.416h-20zM25.333 12.211v14.456h-21.333v-8.284c0.951 0.271 1.805 0.329 2.667 0.251v5.367h16v-10.667c0-4.792-6.667-2.667-6.667-2.667s1.959-6.667-2.667-6.667v-2.667c6.295 0 12 8.251 12 10.877zM10.667 1.333v10c0 2.577-2.088 4.667-4.667 4.667s-4.667-2.089-4.667-4.667v-8c0-1.841 1.492-3.333 3.333-3.333s3.333 1.492 3.333 3.333v6c0 1.104-0.896 2-2 2s-2-0.896-2-2v-5.333h1.333v5.333c0 0.367 0.3 0.667 0.667 0.667s0.667-0.3 0.667-0.667v-6c0-1.103-0.897-2-2-2s-2 0.897-2 2v8c0 1.837 1.495 3.333 3.333 3.333s3.333-1.496 3.333-3.333v-10h1.333z"></path>
</svg>
<svg id="icon-print" width="32" height="32" viewBox="0 0 32 32" x="576" y="192">
<path d="M21.333 22.667h-10.667v-1.333h10.667v1.333zM32 6.667v17.333h-5.397c-0.539 3.231-4.648 8-8.579 8h-12.691v-8h-5.333v-17.333h5.333v-6.667h21.333v6.667h5.333zM8 6.667h16v-4h-16v4zM24 18.667h-16v10.667h8.921c4.625 0 2.667-4.469 2.667-4.469s4.412 2.125 4.412-2.667v-3.531zM29.333 9.333h-26.667v12h2.667v-5.333h21.333v5.333h2.667v-12zM17.333 24h-6.667v1.333h6.667v-1.333zM27.333 10.667c-0.368 0-0.667 0.299-0.667 0.667s0.299 0.667 0.667 0.667 0.667-0.299 0.667-0.667-0.299-0.667-0.667-0.667z"></path>
</svg>
<svg id="icon-save" width="32" height="32" viewBox="0 0 32 32" x="624" y="192">
<path d="M17.333 4h3.995v6.667h-3.995v-6.667zM32 5.333v26.667h-32v-32h26.667l5.333 5.333zM9.333 12h13.333v-9.333h-13.333v9.333zM29.333 6.439l-3.771-3.772h-0.229v12h-18.667v-12h-4v26.667h26.667v-22.895zM25.333 20h-18.667v1.333h18.667v-1.333zM25.333 22.667h-18.667v1.333h18.667v-1.333zM25.333 25.333h-18.667v1.333h18.667v-1.333z"></path>
</svg>
<svg id="icon-save-edit" width="32" height="32" viewBox="0 0 32 32" x="672" y="192">
<path d="M20.751 29.709l-4.751 0.957 0.96-4.749 3.791 3.792zM17.901 24.973l3.793 3.793 10.305-10.307-3.793-3.793-10.305 10.307zM14.667 12h3.995v-6.667h-3.995v6.667zM13.819 28h-11.152v-24h4v12h16v-12h0.229l3.771 3.772v4.727l2.667-2.665v-3.167l-5.333-5.333h-24v29.333h13.271l0.548-2.667zM9.333 4h10.667v9.333h-10.667v-9.333z"></path>
</svg>
<svg id="icon-case" width="32" height="32" viewBox="0 0 32 32" x="720" y="192">
<path d="M29.333 12v2.037c-0.635 0.92-5.087 2.628-13.027 2.628-8.319 0-12.981-1.811-13.64-2.784v-1.881h26.667zM32 9.333h-32v4.655c0 3.543 8.205 5.345 16.307 5.345 7.896 0 15.693-1.712 15.693-5.193v-4.807zM29.333 20.099v6.568h-26.667v-6.668c-1.097-0.449-1.971-0.948-2.667-1.461v10.796h32v-10.599c-0.777 0.536-1.683 0.988-2.667 1.364zM18.667 22.709c0 1.449-1.195 2.624-2.667 2.624s-2.667-1.175-2.667-2.624v-1.376h5.333v1.376zM12 2.667c-1.472 0-2.667 1.195-2.667 2.667v2.667h2.667v-2c0-0.368 0.299-0.667 0.667-0.667h6.667c0.368 0 0.667 0.299 0.667 0.667v2h2.667v-2.667c0-1.472-1.195-2.667-2.667-2.667h-8z"></path>
</svg>
<svg id="icon-case-box" width="32" height="32" viewBox="0 0 32 32" x="0" y="240">
<path d="M0 9.333v20h32v-20h-32zM29.333 26.667h-26.667v-14.667h20v6.667l2-2 2 2v-6.667h2.667v14.667zM12 8h-2.667v-2.667c0-1.472 1.195-2.667 2.667-2.667h8c1.472 0 2.667 1.195 2.667 2.667v2.667h-2.667v-2c0-0.368-0.299-0.667-0.667-0.667h-6.667c-0.368 0-0.667 0.299-0.667 0.667v2z"></path>
</svg>
<svg id="icon-add-folder" width="32" height="32" viewBox="0 0 32 32" x="48" y="240">
<path d="M9.333 2.667c2.26 2.589 3.161 4 5.333 4h17.333v22.667h-32v-26.667h9.333zM14.667 9.333c-3.119 0-4.716-1.851-6.556-4h-5.444v21.333h26.667v-17.333h-14.667zM17.333 17.333h4v2.667h-4v4h-2.667v-4h-4v-2.667h4v-4h2.667v4z"></path>
</svg>
<svg id="icon-folder-delete" width="32" height="32" viewBox="0 0 32 32" x="96" y="240">
<path d="M9.333 2.667c2.26 2.589 3.161 4 5.333 4h17.333v22.667h-32v-26.667h9.333zM14.667 9.333c-3.119 0-4.716-1.851-6.556-4h-5.444v21.333h26.667v-17.333h-14.667zM12.552 13.333l3.448 3.448 3.448-3.448 1.885 1.885-3.448 3.448 3.448 3.448-1.885 1.885-3.448-3.448-3.448 3.448-1.885-1.885 3.448-3.448-3.448-3.448 1.885-1.885z"></path>
</svg>
<svg id="icon-folder-safe" width="32" height="32" viewBox="0 0 32 32" x="144" y="240">
<path d="M32 29.333h-32v-26.667h9.333c2.26 2.589 3.161 4 5.333 4h17.333v22.667zM8.111 5.333h-5.444v21.333h26.667v-17.333h-14.667c-3.119 0-4.716-1.851-6.556-4zM21.333 24h-10.667v-6.667h1.333v-1.333c0-2.208 1.792-4 4-4s4 1.792 4 4v1.333h1.333v6.667zM14.667 16v1.333h2.667v-1.333c0-0.736-0.597-1.333-1.333-1.333s-1.333 0.597-1.333 1.333z"></path>
</svg>
<svg id="icon-folder-search" width="32" height="32" viewBox="0 0 32 32" x="192" y="240">
<path d="M26.343 26.895l3.772 3.772 1.885-1.885-3.772-3.772c0.699-1.055 1.105-2.319 1.105-3.676 0-3.68-2.987-6.667-6.667-6.667s-6.667 2.987-6.667 6.667c0 3.68 2.987 6.667 6.667 6.667 1.357 0 2.621-0.407 3.676-1.105zM16.137 28h-16.137v-26.667h9.333c2.26 2.589 3.161 4 5.333 4h14.667v9.471c-0.765-0.781-1.667-1.429-2.667-1.904v-4.9h-12c-3.119 0-4.716-1.851-6.556-4h-5.444v21.333h11.567c0.475 1 1.123 1.901 1.904 2.667zM22.667 17.333c2.208 0 4 1.792 4 4s-1.792 4-4 4-4-1.792-4-4 1.792-4 4-4z"></path>
</svg>
<svg id="icon-folder-mark" width="32" height="32" viewBox="0 0 32 32" x="240" y="240">
<path d="M14.667 6.667c-2.172 0-3.073-1.411-5.333-4h-9.333v26.667h32v-22.667h-17.333zM29.333 26.667h-26.667v-21.333h5.445c1.839 2.149 3.435 4 6.555 4h5.333v12l3.333-3.512 3.333 3.512v-12h2.667v17.333z"></path>
</svg>
<svg id="icon-calendar-check" width="32" height="32" viewBox="0 0 32 32" x="288" y="240">
<path d="M32 2.667v29.333h-32v-29.333h4v1.333c0 1.471 1.196 2.667 2.667 2.667s2.667-1.196 2.667-2.667v-1.333h13.333v1.333c0 1.471 1.196 2.667 2.667 2.667s2.667-1.196 2.667-2.667v-1.333h4zM29.333 10.667h-26.667v18.667h26.667v-18.667zM26.667 1.333c0-0.736-0.596-1.333-1.333-1.333s-1.333 0.597-1.333 1.333v2.667c0 0.736 0.596 1.333 1.333 1.333s1.333-0.597 1.333-1.333v-2.667zM8 4c0 0.736-0.596 1.333-1.333 1.333s-1.333-0.597-1.333-1.333v-2.667c0-0.736 0.596-1.333 1.333-1.333s1.333 0.597 1.333 1.333v2.667zM9.333 19.639l1.14-1.055c1.333 0.645 2.18 1.136 3.68 2.205 2.817-3.199 4.681-4.821 8.141-6.975l0.372 0.853c-2.855 2.492-4.945 5.265-7.956 10.665-1.857-2.187-3.096-3.581-5.377-5.695z"></path>
</svg>
<svg id="icon-datepicker" width="32" height="32" viewBox="0 0 32 32" x="336" y="240">
<path d="M7 0.667c0-0.368 0.358-0.667 0.8-0.667h2.4c0.442 0 0.8 0.298 0.8 0.667v3.333h10v-3.333c0-0.368 0.358-0.667 0.8-0.667h2.4c0.442 0 0.8 0.298 0.8 0.667v3.333h4.052c1.076 0 1.948 0.847 1.948 1.892v24.216c0 1.045-0.872 1.892-1.948 1.892h-26.104c-1.076 0-1.948-0.847-1.948-1.892v-24.216c0-1.045 0.872-1.892 1.948-1.892h4.052v-3.333zM27 12h-22v15.219c0 0.431 0.323 0.781 0.721 0.781h20.557c0.398 0 0.721-0.349 0.721-0.781v-15.219z"></path>
</svg>
<svg id="icon-chart-arrow-top" width="32" height="32" viewBox="0 0 32 32" x="384" y="240">
<path d="M32 5.167l-8 1.628 2.288 2.277-7.135 7.144-4.001-4.003-9.781 9.656 1.88 1.891 7.896-7.779 3.988 3.991 9.041-9.016 2.223 2.213 1.601-8.003zM32 28v2.667h-32v-29.333h2.667v26.667h29.333z"></path>
</svg>
<svg id="icon-chart-round" width="32" height="32" viewBox="0 0 32 32" x="432" y="240">
<path d="M16 0c-8.836 0-16 7.164-16 16s7.164 16 16 16 16-7.164 16-16-7.164-16-16-16zM29.265 14.667h-11.932v-11.932c6.289 0.627 11.305 5.643 11.932 11.932zM16 29.333c-7.352 0-13.333-5.981-13.333-13.333 0-6.903 5.272-12.595 12-13.265v14.599h14.599c-0.672 6.728-6.364 12-13.265 12z"></path>
</svg>
<svg id="icon-flip-chart-arrow" width="32" height="32" viewBox="0 0 32 32" x="480" y="240">
<path d="M14.667 26.667h2.667v5.333h-2.667v-5.333zM18.473 26.667l4.56 5.333h3.503l-4.552-5.333h-3.511zM5.443 32h3.503l4.56-5.333h-3.511l-4.552 5.333zM15.573 11.991l1.995 1.996 4.521-4.508 1.112 1.107 0.799-3.919-4 0.731 1.143 1.139-3.567 3.572-2-2.001-4.891 4.828 0.94 0.945 3.948-3.889zM24 17.333h-14.667v-10.667h-1.333v12h16v-1.333zM30.667 4h-1.333v20h-26.667v-20h-1.333v-4h29.333v4zM26.667 4h-21.333v17.333h21.333v-17.333z"></path>
</svg>
<svg id="icon-flip-chart-list" width="32" height="32" viewBox="0 0 32 32" x="528" y="240">
<path d="M9.995 26.667h3.511l-4.56 5.333h-3.503l4.552-5.333zM22.667 8h-10.667v1.333h10.667v-1.333zM14.667 32h2.667v-5.333h-2.667v5.333zM18.473 26.667l4.56 5.333h3.503l-4.552-5.333h-3.511zM18.667 16h-6.667v1.333h6.667v-1.333zM22.667 13.333h-10.667v1.333h10.667v-1.333zM22.667 10.667h-10.667v1.333h10.667v-1.333zM30.667 4h-1.333v10.667c0 2.167-6.667 9.333-9.333 9.333h-17.333v-20h-1.333v-4h29.333v4zM26.667 4h-21.333v17.333h14.243c2.769 0 1.757-5.333 1.757-5.333s5.333 1.1 5.333-1.639v-10.361zM10.667 8h-1.333v1.333h1.333v-1.333zM10.667 10.667h-1.333v1.333h1.333v-1.333zM10.667 13.333h-1.333v1.333h1.333v-1.333zM10.667 16h-1.333v1.333h1.333v-1.333z"></path>
</svg>
<svg id="icon-flip-chart-round" width="32" height="32" viewBox="0 0 32 32" x="576" y="240">
<path d="M21.984 26.667l4.552 5.333h-3.503l-4.56-5.333h3.511zM24 8h-5.333v1.333h5.333v-1.333zM14.667 32h2.667v-5.333h-2.667v5.333zM5.443 32h3.504l4.56-5.333h-3.511l-4.553 5.333zM24 10.667h-5.333v1.333h5.333v-1.333zM24 13.333h-5.333v1.333h5.333v-1.333zM12.667 17.333c2.349 0 4.273-1.741 4.6-4h-5.267v-5.267c-2.259 0.327-4 2.251-4 4.6 0 2.577 2.089 4.667 4.667 4.667zM13.333 8.067v3.933h3.933c-0.295-2.039-1.895-3.639-3.933-3.933zM24 16h-5.333v1.333h5.333v-1.333zM30.667 4h-1.333v20h-26.667v-20h-1.333v-4h29.333v4zM26.667 4h-21.333v17.333h21.333v-17.333z"></path>
</svg>
<svg id="icon-user" width="32" height="32" viewBox="0 0 32 32" x="624" y="240">
<path d="M16 0c8.831 0 16 7.169 16 16s-7.169 16-16 16-16-7.169-16-16 7.169-16 16-16zM26.836 25.88c-0.376-0.535-1.029-0.872-2.165-1.133-5.131-1.208-5.463-2.001-5.803-2.745-0.345-0.753-0.253-1.64 0.273-2.636 2.301-4.343 2.787-8.032 1.369-10.387-0.899-1.492-2.5-2.312-4.511-2.312-2.028 0-3.643 0.835-4.545 2.351-1.421 2.385-0.924 6.059 1.399 10.343 0.536 0.989 0.635 1.875 0.293 2.632-0.353 0.781-0.815 1.587-5.82 2.755-1.136 0.261-1.789 0.599-2.164 1.131 2.683 2.943 6.547 4.789 10.837 4.789s8.153-1.847 10.836-4.787zM27.703 24.837c1.86-2.459 2.964-5.52 2.964-8.837 0-8.095-6.572-14.667-14.667-14.667s-14.667 6.572-14.667 14.667c0 3.316 1.103 6.377 2.963 8.835 0.545-0.603 1.399-1.080 2.732-1.388 2.7-0.616 4.501-1.115 4.904-2.003 0.163-0.363 0.081-0.837-0.251-1.449-2.556-4.713-3.043-8.855-1.373-11.66 1.137-1.908 3.211-3.001 5.692-3.001 2.46 0 4.521 1.077 5.653 2.957 1.668 2.772 1.195 6.927-1.333 11.699-0.327 0.617-0.405 1.095-0.239 1.459 0.407 0.891 2.192 1.384 4.889 1.999 1.333 0.307 2.187 0.787 2.732 1.391z"></path>
</svg>
<svg id="icon-person-add" width="32" height="32" viewBox="0 0 32 32" x="672" y="240">
<path d="M12.803 4.933c-1.539 2.583-0.847 6.969 1.899 12.033 1.24 2.283 0.929 4.027 0.451 5.087-1.309 2.904-4.9 3.732-8.7 4.608-2.619 0.605-2.452 1.16-2.452 5.339h-2.66l-0.007-1.655c0-3.36 0.265-5.3 4.237-6.217 4.487-1.036 8.917-1.964 6.787-5.891-6.311-11.639-1.8-18.237 4.976-18.237 4.428 0 7.96 2.823 7.96 8.223 0 4.74-2.599 9.111-3.177 10.444h-2.82c0.523-2.048 3.332-5.821 3.332-10.456 0-6.871-7.823-6.647-9.825-3.277zM30.667 25.333h-4v-4h-2.667v4h-4v2.667h4v4h2.667v-4h4v-2.667z"></path>
</svg>
<svg id="icon-pesron-rights" width="32" height="32" viewBox="0 0 32 32" x="720" y="240">
<path d="M31.993 32h-2.66c0-4.139 0.159-4.733-2.348-5.315-3.836-0.885-7.459-1.721-8.779-4.611-0.481-1.055-0.801-2.793 0.413-5.085 2.723-5.143 3.405-9.553 1.871-12.101-1.788-2.972-7.217-2.988-9.021 0.045-1.539 2.583-0.847 6.969 1.899 12.033 1.24 2.283 0.929 4.027 0.451 5.087-1.309 2.904-4.9 3.732-8.7 4.608-2.619 0.605-2.452 1.16-2.452 5.339h-2.66l-0.007-1.655c0-3.36 0.265-5.3 4.237-6.217 4.487-1.036 8.917-1.964 6.787-5.891-6.311-11.639-1.8-18.237 4.976-18.237 6.644 0 11.268 6.355 4.976 18.237-2.068 3.904 2.2 4.832 6.787 5.891 3.972 0.917 4.237 2.857 4.237 6.217l-0.007 1.655zM14.023 24l1.213 2.667h1.552l1.227-2.667h-3.992zM18.016 32l-0.939-4h-2.153l-0.939 4h4.031z"></path>
</svg>
<svg id="icon-persons-three" width="32" height="32" viewBox="0 0 32 32" x="0" y="288">
<path d="M23.996 24h-1.331c0-2.069 0.080-2.367-1.173-2.657-1.917-0.443-3.729-0.86-4.391-2.305-0.24-0.528-0.401-1.397 0.207-2.543 1.361-2.572 1.703-4.777 0.936-6.051-0.896-1.487-3.609-1.493-4.513 0.023-0.768 1.291-0.421 3.484 0.951 6.016 0.62 1.141 0.464 2.013 0.224 2.544-0.653 1.452-2.448 1.867-4.349 2.304-1.309 0.303-1.227 0.58-1.227 2.669h-1.327l-0.003-0.831c0-1.679 0.133-2.647 2.117-3.105 2.243-0.519 4.459-0.981 3.393-2.945-3.155-5.82-0.901-9.119 2.487-9.119 3.323 0 5.636 3.177 2.489 9.119-1.033 1.952 1.099 2.416 3.393 2.945 1.987 0.459 2.119 1.429 2.119 3.111l-0.003 0.825zM30.409 21.048c-1.719-0.397-3.319-0.745-2.544-2.209 2.36-4.456 0.627-6.839-1.867-6.839-1.687 0-2.997 1.089-2.997 3.1 0 1.692 0.765 2.9 1.205 3.9h1.397c-0.227-1-1.955-3.416-1.021-4.981 0.549-0.923 2.272-0.924 2.819-0.016 0.507 0.841 0.241 2.416-0.712 4.215-0.517 0.977-0.373 1.735-0.161 2.197 0.407 0.888 1.303 1.316 2.316 1.611 2.009 0.588 1.824 0.056 1.824 1.973h1.329l0.003-0.617c0-1.26-0.099-1.989-1.591-2.333zM0.003 24h1.329c0-1.917-0.185-1.385 1.824-1.973 1.015-0.295 1.911-0.723 2.316-1.611 0.212-0.464 0.356-1.22-0.161-2.197-0.953-1.799-1.219-3.373-0.712-4.215 0.547-0.909 2.269-0.908 2.819 0.016 0.933 1.567-0.795 3.981-1.021 4.981h1.397c0.44-1 1.205-2.208 1.205-3.9 0.001-2.012-1.309-3.101-2.996-3.101-2.493 0-4.227 2.383-1.867 6.839 0.775 1.465-0.825 1.812-2.544 2.209-1.493 0.344-1.592 1.073-1.592 2.335l0.003 0.617z"></path>
</svg>
<svg id="icon-person-edit" width="32" height="32" viewBox="0 0 32 32" x="48" y="288">
<path d="M32 5.333h-9.333v2.667h9.333v-2.667zM32 10.667h-9.333v2.667h9.333v-2.667zM32 16h-9.333v2.667h9.333v-2.667zM26.667 28.257v1.076h-2.667v-1.312c0-1.772 0.113-2.284-1.611-2.684-3.305-0.763-6.429-1.483-7.619-4.089-0.444-0.971-0.741-2.561 0.355-4.631 2.195-4.145 2.767-7.661 1.572-9.647-0.859-1.425-2.475-1.637-3.364-1.637-0.896 0-2.528 0.217-3.395 1.672-1.2 2.015-0.619 5.509 1.592 9.588 1.119 2.063 0.829 3.659 0.389 4.635-1.183 2.621-4.424 3.368-7.56 4.091-1.797 0.412-1.693 0.9-1.693 2.681v1.333h-2.661l-0.005-1.111c-0.012-2.965 0.117-4.66 3.529-5.448 3.74-0.863 7.431-1.636 5.656-4.909-5.257-9.7-1.497-15.199 4.148-15.199 5.539 0 9.389 5.295 4.148 15.197-1.723 3.253 1.833 4.027 5.656 4.909 3.425 0.792 3.543 2.497 3.529 5.484z"></path>
</svg>
<svg id="icon-person-edit-bold" width="32" height="32" viewBox="0 0 32 32" x="96" y="288">
<path d="M26.667 28.257l-0.004 1.076h-26.657l-0.005-1.111c-0.012-2.965 0.117-4.66 3.529-5.448 3.74-0.863 7.431-1.636 5.656-4.909-5.257-9.7-1.497-15.198 4.148-15.198 5.537 0 9.39 5.295 4.147 15.197-1.723 3.253 1.833 4.027 5.656 4.909 3.427 0.792 3.543 2.497 3.531 5.484zM32 5.334h-9.333v2.667h9.333v-2.667zM32 10.667h-9.333v2.667h9.333v-2.667zM32 16h-9.333v2.667h9.333v-2.667z"></path>
</svg>
<svg id="icon-add-user" width="32" height="32" viewBox="0 0 32 32" x="144" y="288">
<path d="M31.185 24.606c-0.446-1.427-1.534-2.534-2.918-2.995l-0.032-0.009c-1.851-0.473-3.465-1.092-4.983-1.872l0.132 0.062c-0.561-0.375-0.925-1.005-0.925-1.721 0-0.308 0.067-0.6 0.188-0.862l-0.005 0.013c0.225-0.416 0.456-0.923 0.657-1.445l0.031-0.093c0.047-0.104 0.085-0.226 0.107-0.352l0.001-0.009 0.109-0.471c0.047 0.024 0.104 0.039 0.163 0.039s0.115-0.014 0.165-0.040l-0.002 0.001c0.145 0 0.127-0.38 0.308-1.050 0.184-0.458 0.291-0.988 0.291-1.544 0-0.145-0.007-0.288-0.021-0.429l0.001 0.018c-0.038-0.034-0.089-0.055-0.145-0.055s-0.107 0.021-0.145 0.056v0c0.127-0.833 0.633-5.122-2.045-5.756 0 0-0.905-1.050-3.529-0.742-1.426 0.22-2.598 1.135-3.175 2.381l-0.011 0.026c-0.141 0.598-0.222 1.285-0.222 1.991s0.081 1.393 0.234 2.052l-0.012-0.061c-0.038-0.034-0.089-0.055-0.145-0.055s-0.107 0.021-0.145 0.056v0c-0.020 0.154-0.031 0.332-0.031 0.513 0 0.531 0.098 1.039 0.276 1.508l-0.010-0.029c0.163 0.67 0.163 0.977 0.308 1.050 0.045 0.022 0.098 0.034 0.154 0.034s0.109-0.013 0.156-0.035l-0.002 0.001 0.109 0.507c0.024 0.136 0.062 0.258 0.113 0.372l-0.004-0.010c0.231 0.616 0.463 1.123 0.723 1.612l-0.036-0.073c0.125 0.259 0.199 0.562 0.199 0.883 0 0.684-0.332 1.289-0.844 1.665l-0.006 0.004c-1.386 0.718-3 1.337-4.687 1.774l-0.163 0.036c-1.464 0.456-2.593 1.591-3.032 3.026l-0.008 0.032-0.814 2.697h24.489z"></path>
<path d="M10.751 8.28h-3.584v-3.584h-3.584v3.584h-3.584v3.584h3.584v3.584h3.584v-3.584h3.584v-3.584z"></path>
</svg>
<svg id="icon-admin" width="32" height="32" viewBox="0 0 32 32" x="192" y="288">
<path d="M10.537 14.074c0.059 0.029 0.129 0.046 0.202 0.046s0.143-0.017 0.205-0.047l-0.003 0.001 0.145 0.663c0.033 0.177 0.084 0.334 0.151 0.482l-0.005-0.013c0.303 0.772 0.602 1.405 0.935 2.016l-0.046-0.093c0.174 0.316 0.277 0.692 0.277 1.092 0 0.257-0.042 0.503-0.12 0.734l0.005-0.016c1.062 0.634 2.342 1.009 3.709 1.009s2.647-0.375 3.743-1.028l-0.034 0.019c-0.070-0.209-0.11-0.45-0.11-0.701 0-0.407 0.107-0.79 0.294-1.121l-0.006 0.011c0.261-0.516 0.534-1.157 0.769-1.815l0.039-0.124c0.062-0.135 0.112-0.292 0.143-0.456l0.002-0.013 0.129-0.614c0.061 0.031 0.134 0.050 0.21 0.050s0.149-0.018 0.213-0.051l-0.003 0.001c0.194-0.097 0.178-0.501 0.388-1.374 0.22-0.574 0.348-1.237 0.348-1.93 0-0.237-0.015-0.47-0.044-0.699l0.003 0.027c-0.049-0.080-0.136-0.133-0.235-0.133-0.050 0-0.097 0.013-0.138 0.037l0.001-0.001c0.259-0.986 0.905-6.691-2.634-7.45 0 0-1.18-1.374-4.606-0.97-1.85 0.329-3.356 1.552-4.075 3.197l-0.014 0.035c-0.25 0.91-0.394 1.955-0.394 3.033 0 0.768 0.073 1.518 0.212 2.245l-0.012-0.074c-0.039-0.023-0.086-0.036-0.136-0.036-0.099 0-0.187 0.053-0.235 0.132l-0.001 0.001c-0.026 0.202-0.041 0.435-0.041 0.672 0 0.693 0.128 1.357 0.361 1.968l-0.013-0.038c0.242 0.824 0.226 1.147 0.42 1.325z"></path>
<path d="M30.933 26.922c-0.579-1.873-2.006-3.326-3.821-3.931l-0.042-0.012c-2.374-0.675-4.402-1.457-6.339-2.396l0.23 0.101-3.232 9.147-0.63-4.849 0.549-1.939c0.016-0.058 0.026-0.125 0.026-0.194 0-0.408-0.329-0.74-0.736-0.743h-1.924c-0.408 0.004-0.737 0.335-0.737 0.743 0 0.069 0.009 0.136 0.027 0.199l-0.001-0.005 0.55 1.972-0.614 4.848-3.248-9.131c-1.677 0.812-3.683 1.582-5.757 2.19l-0.287 0.072c-1.857 0.617-3.283 2.070-3.851 3.901l-0.011 0.042-1.083 3.523h32z"></path>
</svg>
<svg id="icon-user-table" width="32" height="32" viewBox="0 0 32 32" x="240" y="288">
<path d="M24.449 14.456c-0.33-1.064-1.139-1.891-2.169-2.237l-0.024-0.007c-1.377-0.374-2.574-0.856-3.698-1.457l0.094 0.046c-0.38-0.282-0.623-0.729-0.623-1.232 0-0.238 0.054-0.463 0.151-0.664l-0.004 0.009c0.167-0.308 0.338-0.683 0.487-1.070l0.023-0.069c0.005-0.041 0.008-0.088 0.008-0.136s-0.003-0.095-0.008-0.142l0.001 0.006v-0.357c0.035 0.017 0.076 0.027 0.119 0.027s0.084-0.010 0.121-0.028l-0.002 0.001c0.102 0 0.102-0.289 0.221-0.782 0.123-0.324 0.194-0.698 0.194-1.088 0-0.138-0.009-0.273-0.026-0.406l0.002 0.016c-0.027-0.024-0.063-0.039-0.102-0.039s-0.075 0.015-0.102 0.039v0c0.102-0.612 0.476-3.808-1.53-4.284 0 0-0.663-0.782-2.618-0.561-0.991 0.233-1.786 0.916-2.168 1.816l-0.008 0.020c-0.145 0.524-0.228 1.125-0.228 1.746 0 0.428 0.040 0.848 0.115 1.254l-0.007-0.042c-0.028-0.029-0.067-0.047-0.111-0.047s-0.083 0.018-0.11 0.047v0c-0.015 0.117-0.024 0.253-0.024 0.391 0 0.391 0.071 0.765 0.202 1.11l-0.007-0.022c0.119 0.493 0.119 0.731 0.221 0.782 0.035 0.017 0.076 0.027 0.119 0.027s0.084-0.010 0.121-0.028l-0.002 0.001v0.374c-0.005 0.041-0.008 0.088-0.008 0.136s0.003 0.095 0.008 0.142l-0.001-0.006c0.172 0.456 0.343 0.831 0.536 1.193l-0.026-0.054c0.093 0.192 0.147 0.417 0.147 0.655 0 0.504-0.243 0.951-0.619 1.229l-0.004 0.003c-1.030 0.555-2.227 1.037-3.481 1.382l-0.123 0.029c-1.054 0.353-1.863 1.18-2.187 2.22l-0.006 0.024-0.612 2.006h18.343z"></path>
<path d="M1.193 19.114v3.196h3.4v9.69h22.814v-9.69h3.4v-3.196z"></path>
</svg>
<svg id="icon-users" width="32" height="32" viewBox="0 0 32 32" x="288" y="288">
<path d="M21.624 23.675c-0.402-1.31-1.398-2.326-2.666-2.749l-0.029-0.009c-1.696-0.458-3.171-1.048-4.556-1.786l0.116 0.056c-0.486-0.346-0.799-0.907-0.799-1.541 0-0.313 0.076-0.609 0.212-0.869l-0.005 0.010c0.203-0.378 0.413-0.841 0.595-1.317l0.029-0.086c0.041-0.094 0.073-0.204 0.092-0.319l0.001-0.008 0.093-0.436c0.043 0.022 0.094 0.035 0.148 0.035s0.105-0.013 0.15-0.036l-0.002 0.001c0.14 0 0.125-0.343 0.28-0.966 0.155-0.402 0.245-0.867 0.245-1.354 0-0.16-0.010-0.318-0.029-0.472l0.002 0.019c-0.033-0.030-0.077-0.048-0.125-0.048s-0.092 0.018-0.125 0.048v0c0.125-0.748 0.576-4.674-1.87-5.266 0 0-0.826-0.966-3.209-0.685-1.312 0.231-2.378 1.106-2.873 2.281l-0.009 0.025c-0.208 0.691-0.327 1.484-0.327 2.306 0 0.473 0.040 0.937 0.116 1.389l-0.007-0.049c-0.034-0.034-0.081-0.055-0.132-0.055s-0.099 0.021-0.132 0.055v0c-0.011 0.111-0.018 0.241-0.018 0.372 0 0.523 0.104 1.022 0.292 1.477l-0.009-0.026c0.156 0.608 0.14 0.888 0.28 0.966 0.041 0.020 0.089 0.032 0.14 0.032s0.099-0.012 0.142-0.032l-0.002 0.001 0.093 0.467c0.020 0.123 0.053 0.233 0.097 0.337l-0.004-0.009c0.21 0.562 0.42 1.024 0.656 1.47l-0.033-0.068c0.113 0.235 0.179 0.51 0.179 0.801 0 0.622-0.301 1.173-0.765 1.517l-0.005 0.004c-1.269 0.681-2.744 1.271-4.289 1.694l-0.151 0.035c-1.297 0.431-2.293 1.448-2.687 2.728l-0.008 0.029-0.717 2.493h22.372z"></path>
<path d="M19.536 14.701l-0.093 0.436c-0.020 0.123-0.053 0.233-0.097 0.337l0.004-0.009c-0.21 0.561-0.419 1.023-0.656 1.469l0.032-0.067c-0.113 0.235-0.179 0.51-0.179 0.801 0 0.622 0.301 1.173 0.765 1.517l0.005 0.004c1.269 0.681 2.744 1.271 4.289 1.694l0.151 0.035c1.297 0.431 2.293 1.448 2.687 2.728l0.008 0.029 0.545 1.792c0.124 0.398 0.488 0.683 0.919 0.685h4.082l-0.748-2.462c-0.402-1.31-1.398-2.326-2.666-2.749l-0.029-0.009c-1.696-0.458-3.171-1.048-4.556-1.786l0.116 0.056c-0.516-0.342-0.851-0.92-0.851-1.576 0-0.306 0.073-0.594 0.202-0.849l-0.005 0.011c0.204-0.379 0.414-0.841 0.595-1.317l0.028-0.085c0.041-0.094 0.073-0.204 0.092-0.319l0.001-0.008 0.093-0.436c0.043 0.022 0.094 0.035 0.148 0.035s0.105-0.013 0.15-0.036l-0.002 0.001c0.14 0 0.125-0.343 0.28-0.966 0.155-0.402 0.245-0.867 0.245-1.354 0-0.16-0.010-0.318-0.029-0.472l0.002 0.019c-0.033-0.030-0.077-0.048-0.125-0.048s-0.092 0.018-0.125 0.048v0c0.125-0.748 0.576-4.674-1.87-5.266 0 0-0.826-0.966-3.209-0.685-0.597 0.076-1.128 0.31-1.564 0.659l0.006-0.005c0.866 1.050 1.482 2.338 1.737 3.751l0.008 0.050c0.074 0.382 0.117 0.821 0.117 1.27s-0.042 0.888-0.124 1.313l0.007-0.044z"></path>
</svg>
<svg id="icon-user-security" width="32" height="32" viewBox="0 0 32 32" x="336" y="288">
<path d="M28.111 4.251c-0.232 0.011-0.504 0.018-0.778 0.018-4.348 0-8.321-1.611-11.352-4.268l0.020 0.017c-3.012 2.641-6.984 4.251-11.333 4.251-0.274 0-0.546-0.006-0.816-0.019l0.038 0.001h-0.23v16.607c0.004 1.663 0.73 3.155 1.881 4.18l0.006 0.005 10.453 6.958 10.453-6.958c1.157-1.030 1.883-2.522 1.887-4.184v-16.608zM7.089 23.106l0.591-1.969c0.319-1.051 1.122-1.865 2.143-2.192l0.023-0.006c1.348-0.366 2.52-0.837 3.621-1.423l-0.092 0.045c0.378-0.274 0.621-0.715 0.621-1.212 0-0.233-0.054-0.454-0.149-0.651l0.004 0.009c-0.161-0.301-0.327-0.669-0.47-1.048l-0.022-0.068c-0.005-0.039-0.008-0.085-0.008-0.131s0.003-0.092 0.008-0.137l-0.001 0.005v-0.377h-0.23c-0.098 0-0.098-0.279-0.213-0.771-0.119-0.315-0.188-0.68-0.188-1.061 0-0.135 0.009-0.268 0.026-0.399l-0.002 0.015c0.017-0.008 0.037-0.013 0.057-0.013s0.041 0.005 0.058 0.014h0.081c-0.070-0.361-0.111-0.775-0.111-1.199 0-0.607 0.082-1.194 0.236-1.751l-0.011 0.046c0.405-0.944 1.246-1.633 2.262-1.819l0.019-0.003h0.656c0.081-0.009 0.174-0.014 0.269-0.014 0.626 0 1.198 0.229 1.638 0.608l-0.003-0.003c1.953 0.46 1.641 3.594 1.493 4.201h0.082c0.017-0.008 0.037-0.013 0.057-0.013s0.041 0.005 0.058 0.014h-0.001c0.015 0.115 0.024 0.248 0.024 0.383 0 0.381-0.069 0.745-0.195 1.082l0.007-0.021c-0.115 0.492-0.115 0.706-0.213 0.771h-0.23v0.345c0.005 0.039 0.008 0.085 0.008 0.131s-0.003 0.092-0.008 0.137l0.001-0.005c-0.166 0.447-0.331 0.815-0.518 1.17l0.026-0.054c-0.092 0.188-0.145 0.409-0.145 0.642 0 0.497 0.243 0.938 0.617 1.209l0.004 0.003c1.008 0.542 2.18 1.012 3.408 1.35l0.121 0.028c1.038 0.339 1.834 1.151 2.144 2.176l0.006 0.023 0.591 1.969z"></path>
</svg>
<svg id="icon-person-card" width="32" height="32" viewBox="0 0 32 32" x="384" y="288">
<path d="M32 32h-32v-32h32v32zM29.333 2.667h-26.667v26.667h26.667v-26.667zM23.843 21.419c-3.057-0.705-5.903-1.324-4.525-3.927 4.195-7.923 1.112-12.159-3.317-12.159-4.517 0-7.524 4.399-3.317 12.159 1.419 2.617-1.533 3.236-4.525 3.927-2.731 0.631-2.832 1.987-2.824 4.359l0.005 0.889h21.324l0.004-0.861c0.009-2.389-0.083-3.753-2.824-4.387z"></path>
</svg>
<svg id="icon-person-edit-card" width="32" height="32" viewBox="0 0 32 32" x="432" y="288">
<path d="M29.333 6.667v18.667h-26.667v-18.667h26.667zM32 4h-32v24h32v-24zM18.667 22.129v0.537h-13.333v-0.556c-0.005-1.483 0.059-2.329 1.765-2.724 1.871-0.432 3.716-0.817 2.829-2.455-2.631-4.849-0.751-7.599 2.072-7.599 2.769 0 4.695 2.647 2.075 7.599-0.863 1.627 0.917 2.013 2.828 2.455 1.712 0.396 1.771 1.248 1.764 2.743zM26.667 9.333h-5.333v2.667h5.333v-2.667zM26.667 14.667h-5.333v2.667h5.333v-2.667zM26.667 20h-5.333v2.667h5.333v-2.667z"></path>
</svg>
<svg id="icon-person-card-check" width="32" height="32" viewBox="0 0 32 32" x="480" y="288">
<path d="M18.453 19.080c-0.393 0.696-0.689 1.453-0.879 2.253h-12.241v-0.556c-0.005-1.483 0.059-2.329 1.765-2.724 1.869-0.432 3.716-0.817 2.828-2.455-2.629-4.849-0.749-7.599 2.073-7.599 2.769 0 4.695 2.647 2.075 7.599-0.863 1.627 0.917 2.013 2.828 2.455 0.896 0.207 1.333 0.543 1.551 1.027zM17.367 24h-14.7v-18.667h26.667v10c0.999 0.416 1.899 1.017 2.667 1.755v-14.421h-32v24h18c-0.347-0.831-0.561-1.728-0.633-2.667zM26.667 12h-5.333v2.667h5.333v-2.667zM21.333 10.667h5.333v-2.667h-5.333v2.667zM26 17.333c-3.315 0-6 2.687-6 6s2.685 6 6 6c3.312 0 6-2.687 6-6s-2.688-6-6-6zM25.375 25.979l-2.251-2.183 0.927-0.929 1.323 1.253 2.82-2.892 0.929 0.928-3.748 3.823z"></path>
</svg>
<svg id="icon-person-clip" width="32" height="32" viewBox="0 0 32 32" x="528" y="288">
<path d="M22.667 24.796v0.537h-13.333v-0.556c-0.005-1.483 0.059-2.329 1.765-2.724 1.869-0.432 3.716-0.817 2.828-2.455-2.629-4.849-0.749-7.599 2.073-7.599 2.769 0 4.695 2.647 2.075 7.599-0.863 1.627 0.917 2.013 2.828 2.455 1.712 0.396 1.771 1.248 1.764 2.743zM21.333 5.333v2.667h4v21.333h-18.667v-21.333h4v-2.667h-6.667v26.667h24v-26.667h-6.667zM13.333 0v8h5.333v-8h-5.333zM16 5.333c-0.737 0-1.333-0.597-1.333-1.333s0.596-1.333 1.333-1.333 1.333 0.597 1.333 1.333-0.596 1.333-1.333 1.333z"></path>
</svg>
<svg id="icon-person-clip-card" width="32" height="32" viewBox="0 0 32 32" x="576" y="288">
<path d="M18.667 24.796v0.537h-13.333v-0.556c-0.005-1.483 0.059-2.329 1.765-2.724 1.871-0.432 3.716-0.817 2.829-2.455-2.631-4.849-0.751-7.599 2.072-7.599 2.769 0 4.695 2.647 2.075 7.599-0.863 1.627 0.917 2.013 2.828 2.455 1.712 0.396 1.771 1.248 1.764 2.743zM26.667 12h-5.333v2.667h5.333v-2.667zM26.667 17.333h-5.333v2.667h5.333v-2.667zM26.667 22.667h-5.333v2.667h5.333v-2.667zM21.333 6.667v2.667h8v18.667h-26.667v-18.667h8v-2.667h-10.667v24h32v-24h-10.667zM13.333 1.333v8h5.333v-8h-5.333zM16 6.667c-0.736 0-1.333-0.597-1.333-1.333s0.597-1.333 1.333-1.333 1.333 0.597 1.333 1.333-0.597 1.333-1.333 1.333z"></path>
</svg>
<svg id="icon-person-card-list" width="32" height="32" viewBox="0 0 32 32" x="624" y="288">
<path d="M29.333 10.667v16h-21.333v-16h21.333zM32 8h-26.667v21.333h26.667v-21.333zM21.333 23.569v0.431h-10.667v-0.444c-0.005-1.187 0.047-1.864 1.412-2.179 1.497-0.345 2.973-0.655 2.263-1.964-2.103-3.881-0.599-6.080 1.659-6.080 2.216 0 3.755 2.117 1.659 6.080-0.691 1.301 0.735 1.611 2.263 1.964 1.371 0.316 1.417 0.997 1.412 2.192zM26.667 13.333h-4v2.667h4v-2.667zM26.667 17.333h-4v2.667h4v-2.667zM26.667 21.333h-4v2.667h4v-2.667zM29.333 5.333h-26.667v21.333h1.333v-20h25.333v-1.333zM26.667 2.667h-26.667v21.333h1.333v-20h25.333v-1.333z"></path>
</svg>
<svg id="icon-card-list-box" width="32" height="32" viewBox="0 0 32 32" x="672" y="288">
<path d="M4.587 2.667l-0.585-2.667h23.992l-0.585 2.667h-22.821zM2.667 6.667l-0.585-2.667h27.839l-0.587 2.667h-26.667zM16.132 20.955l0.005 0.377h-7.919l-0.064-0.389c-0.177-1.039-0.236-1.632 0.776-1.907 1.123-0.303 2.245-0.572 1.557-1.719-2.169-3.395-1.132-5.32 0.845-5.32 1.939 0 3.355 1.853 1.807 5.32-0.464 1.139 0.667 1.408 1.868 1.719 1.068 0.277 1.112 0.873 1.124 1.919zM24.969 14.667h-6.379l-0.037 1.333h6.233l0.183-1.333zM25.333 12h-6.667l-0.037 1.332h6.523l0.181-1.332zM24.603 17.333h-6.088l-0.039 1.332h5.945l0.181-1.332zM24.239 20h-5.801l-0.037 1.332h5.655l0.184-1.332zM32 24h-32l2.667 8h26.667l2.667-8zM4.5 21.333l-1.447-10.668h25.881l-1.492 10.668h2.695l1.863-13.333h-32l1.808 13.333h2.692z"></path>
</svg>
<svg id="icon-person-card-case" width="32" height="32" viewBox="0 0 32 32" x="720" y="288">
<path d="M2.568 9.333l-0.741-3.999h28.341l-0.741 3.999h-26.859zM4.587 2.667l-0.585-2.667h23.992l-0.585 2.667h-22.821zM0 12.001l2.713 19.999h26.491l2.796-19.999h-32zM5.043 29.335l-1.627-12.001h25.147l-1.679 12.001h-21.841zM16.132 27.623l0.005 0.377h-7.919l-0.064-0.389c-0.177-1.039-0.236-1.632 0.776-1.907 1.123-0.303 2.245-0.572 1.557-1.719-2.169-3.395-1.131-5.319 0.845-5.319 1.939 0 3.355 1.853 1.807 5.32-0.464 1.139 0.667 1.408 1.868 1.719 1.068 0.276 1.112 0.872 1.124 1.917zM24.969 21.333h-6.379l-0.037 1.333h6.233l0.183-1.333zM25.333 18.667h-6.667l-0.037 1.333h6.523l0.181-1.333zM24.603 24h-6.088l-0.039 1.333h5.945l0.181-1.333zM24.239 26.667h-5.801l-0.037 1.333h5.655l0.184-1.333z"></path>
</svg>
<svg id="icon-docs-list" width="32" height="32" viewBox="0 0 32 32" x="0" y="336">
<path d="M16 16h-5.333v-1.333h5.333v1.333zM16 17.333h-5.333v1.333h5.333v-1.333zM32 9.333v18.667h-26.667v-18.667h26.667zM29.333 25.333v-13.333h-21.333v13.333h21.333zM21.303 22.667l0.909-0.893 0.908 0.893 0.912-0.893 0.908 0.893 1.727-1.727-0.817-0.936-0.909 0.889-0.909-0.893-0.911 0.893-0.909-0.893-0.911 0.893-0.909-0.893-1.724 1.707 0.817 0.956 0.907-0.889 0.912 0.893zM10.667 22.667h5.333v-1.333h-5.333v1.333zM25.333 16v1.333h-5.333v-1.333h5.333zM26.667 14.667h-8v4h8v-4zM2.667 6.667v18.667h1.333v-17.333h25.333v-1.333h-26.667zM0 4v18.667h1.333v-17.333h25.333v-1.333h-26.667z"></path>
</svg>
<svg id="icon-doc-envelope" width="32" height="32" viewBox="0 0 32 32" x="48" y="336">
<path d="M32 30.667v-17.7l-2.667-1.937v-9.696h-26.667v9.693l-2.667 1.94v17.7h32zM5.333 16.704v-12.704h21.333v12.703l-10.667 7.297-10.667-7.296zM24 16h-16v-1.333h16v1.333zM24 12v1.333h-16v-1.333h16zM14.667 10.667h-6.667v-4h6.667v4zM24 10.667h-8v-1.333h8v1.333zM24 8h-8v-1.333h8v1.333z"></path>
</svg>
<svg id="icon-msg-info" width="32" height="32" viewBox="0 0 32 32" x="96" y="336">
<path d="M32 23.974h-17.333l-9.333 6.693v-6.693h-5.333v-22.641h32v22.641zM29.333 3.999h-26.667v17.308h5.333v4.167l5.809-4.167h15.524v-17.308zM17.333 12.001v6.667h-2.667v-6.667h2.667zM16 10.001c0.92 0 1.667-0.747 1.667-1.667s-0.747-1.667-1.667-1.667-1.667 0.747-1.667 1.667 0.747 1.667 1.667 1.667z"></path>
</svg>
<svg id="icon-msg-envelope" width="32" height="32" viewBox="0 0 32 32" x="144" y="336">
<path d="M32 30.667v-17.7l-2.667-1.937v-9.696h-26.667v9.693l-2.667 1.94v17.7h32zM29.333 28h-26.667v-9.888l13.333 9.271 13.333-9.271v9.888zM5.333 16.704v-12.704h21.333v12.703l-10.667 7.297-10.667-7.296zM16.241 6.107c-0.125-0.381 0.16-0.773 0.557-0.773 0.245 0 0.475 0.156 0.556 0.403l3.449 8.657c0.103 0.309-0.064 0.641-0.371 0.744-0.308 0.103-0.64-0.064-0.743-0.372 0 0-2.177-0.729-4.76 0.128l1.697 2.639c0.177 0.259 0.053 0.613-0.24 0.711l-1.153 0.384-0.243 0.040c-0.217 0-0.428-0.092-0.577-0.26l-2.333-2.573c-1.269 0.4-2.708-0.063-3.188-1.259-0.109-0.275-0.167-0.568-0.167-0.861 0-0.853 0.477-1.723 1.511-2.231 5.176-2.541 6.004-5.376 6.004-5.376zM19.919 6.66c0.92 0.388 1.691 1.131 2.096 2.131 0.405 1.001 0.368 2.073-0.020 2.995l0.893 0.379c0.252-0.597 0.385-1.244 0.385-1.904 0-1.919-1.136-3.716-2.977-4.496l-0.377 0.896zM19.273 8.189c0.531 0.223 0.975 0.651 1.208 1.227s0.212 1.192-0.011 1.723l0.871 0.369c0.317-0.755 0.349-1.631 0.017-2.449s-0.963-1.425-1.716-1.744l-0.369 0.875z"></path>
</svg>
<svg id="icon-msg-chat" width="32" height="32" viewBox="0 0 32 32" x="192" y="336">
<path d="M27.618 14.704c2.585 1.348 4.382 3.731 4.382 6.609 0 1.599-0.575 3.17-1.596 4.387-0.042 1.427 0.798 3.476 1.555 4.968-2.030-0.368-4.916-1.177-6.223-1.979-1.106 0.268-2.166 0.392-3.167 0.392-3.876 0-6.885-1.856-8.337-4.344 8.534-0.275 13.037-5.952 13.385-10.034zM13.279 1.332c-7.014 0-13.279 4.677-13.279 11.075 0 2.268 0.817 4.495 2.264 6.224 0.061 2.025-1.13 4.931-2.204 7.047 2.879-0.521 6.973-1.669 8.828-2.807 10.22 2.487 17.671-3.767 17.671-10.464 0-6.432-6.309-11.075-13.279-11.075zM17.327 15.594c-0.282 0.094-0.586-0.058-0.679-0.34 0 0-1.987-0.665-4.345 0.117l1.548 2.409c0.161 0.238 0.049 0.56-0.218 0.651l-1.054 0.349-0.222 0.037c-0.198 0-0.39-0.085-0.526-0.238l-2.13-2.35c-1.159 0.366-2.473-0.056-2.911-1.149-0.101-0.25-0.151-0.517-0.151-0.786 0-0.777 0.434-1.571 1.378-2.036 4.726-2.32 5.482-4.908 5.482-4.908-0.114-0.348 0.146-0.706 0.507-0.706 0.224 0 0.434 0.143 0.509 0.368l3.149 7.904c0.094 0.281-0.058 0.586-0.337 0.679zM19.567 12.881l-0.815-0.347c0.355-0.842 0.389-1.821 0.019-2.733-0.37-0.914-1.073-1.592-1.914-1.947l0.345-0.817c1.68 0.71 2.717 2.352 2.717 4.105 0 0.603-0.122 1.192-0.352 1.738zM18.155 12.282l-0.795-0.337c0.204-0.485 0.224-1.048 0.011-1.574-0.212-0.526-0.619-0.916-1.102-1.119l0.336-0.798c0.688 0.291 1.264 0.843 1.566 1.591 0.304 0.749 0.275 1.547-0.015 2.238z"></path>
</svg>
</svg>
