<svg width="69" height="18" viewBox="0 0 69 18" fill="none" xmlns="http://www.w3.org/2000/svg"><path d="M.909.9h3.726v13.064h8.073V17H.909V.9zm21.408 16.376c-1.671 0-3.181-.36-4.53-1.081-1.335-.72-2.385-1.71-3.152-2.967-.751-1.273-1.127-2.699-1.127-4.278 0-1.58.376-2.998 1.127-4.255a8.1 8.1 0 0 1 3.151-2.99c1.35-.72 2.86-1.081 4.531-1.081 1.672 0 3.174.36 4.508 1.081a8.1 8.1 0 0 1 3.151 2.99c.767 1.257 1.15 2.676 1.15 4.255 0 1.58-.383 3.005-1.15 4.278-.766 1.257-1.817 2.246-3.15 2.967-1.335.72-2.837 1.081-4.509 1.081zm0-3.174c.951 0 1.81-.215 2.576-.644a4.704 4.704 0 0 0 1.794-1.84c.445-.782.667-1.671.667-2.668 0-.997-.222-1.886-.667-2.668a4.546 4.546 0 0 0-1.794-1.817c-.766-.445-1.625-.667-2.576-.667-.95 0-1.809.222-2.576.667a4.704 4.704 0 0 0-1.817 1.817c-.429.782-.644 1.671-.644 2.668 0 .997.215 1.886.644 2.668a4.87 4.87 0 0 0 1.817 1.84c.767.43 1.626.644 2.576.644zm22.489-5.405h3.404v6.532c-.874.66-1.886 1.165-3.036 1.518-1.15.353-2.308.529-3.473.529-1.672 0-3.174-.353-4.508-1.058-1.334-.72-2.385-1.71-3.151-2.967-.752-1.273-1.127-2.706-1.127-4.301 0-1.595.375-3.02 1.127-4.278.766-1.273 1.824-2.262 3.174-2.967C38.565.985 40.083.624 41.77.624c1.41 0 2.69.238 3.84.713a7.61 7.61 0 0 1 2.899 2.07l-2.392 2.208c-1.15-1.211-2.538-1.817-4.163-1.817-1.028 0-1.94.215-2.737.644a4.62 4.62 0 0 0-1.863 1.817c-.445.782-.667 1.679-.667 2.691 0 .997.222 1.886.667 2.668a4.82 4.82 0 0 0 1.84 1.84c.797.43 1.702.644 2.714.644 1.073 0 2.039-.23 2.898-.69V8.697zm14.662 8.579c-1.672 0-3.182-.36-4.531-1.081-1.334-.72-2.385-1.71-3.151-2.967-.752-1.273-1.127-2.699-1.127-4.278 0-1.58.375-2.998 1.127-4.255a8.1 8.1 0 0 1 3.15-2.99c1.35-.72 2.86-1.081 4.532-1.081 1.671 0 3.174.36 4.508 1.081a8.1 8.1 0 0 1 3.15 2.99c.767 1.257 1.15 2.676 1.15 4.255 0 1.58-.383 3.005-1.15 4.278-.766 1.257-1.816 2.246-3.15 2.967-1.334.72-2.837 1.081-4.508 1.081zm0-3.174c.95 0 1.81-.215 2.576-.644a4.704 4.704 0 0 0 1.794-1.84c.444-.782.667-1.671.667-2.668 0-.997-.223-1.886-.667-2.668a4.546 4.546 0 0 0-1.794-1.817c-.767-.445-1.626-.667-2.576-.667-.95 0-1.81.222-2.576.667a4.704 4.704 0 0 0-1.817 1.817c-.43.782-.644 1.671-.644 2.668 0 .997.214 1.886.644 2.668a4.87 4.87 0 0 0 1.817 1.84c.766.43 1.625.644 2.576.644z" fill="#fff"/></svg>