<svg width="29" height="32" viewBox="0 0 29 32" fill="none" xmlns="http://www.w3.org/2000/svg">
<path fill-rule="evenodd" clip-rule="evenodd" d="M19.8457 7.58929C19.8457 7.75543 19.8667 7.91147 19.9121 8.05316C19.9497 8.16861 20.0039 8.27451 20.0771 8.3685C20.125 8.43033 20.1812 8.48703 20.2466 8.53793C20.4751 8.81696 20.8184 8.92856 21.2192 8.92856H29V27.2321C29 27.6228 28.8281 27.9576 28.5996 28.1808C28.3135 28.4598 27.9702 28.5714 27.627 28.5714H12.5V27.3621C12.5806 27.2798 12.6631 27.2058 12.7544 27.1404C13.1006 26.8924 13.5889 26.7794 14.064 26.6691L14.0947 26.662C14.6992 26.5213 15.333 26.3666 15.6567 25.9586C15.9653 25.5524 15.9224 24.9648 15.8774 24.3488V24.3408L15.8706 24.2402C15.8433 23.7939 15.8149 23.3416 15.9517 22.9622C16.084 22.5683 16.4082 22.2025 16.7178 21.8508C17.1299 21.3865 17.5576 20.9082 17.5576 20.3736C17.5576 19.8703 17.1528 19.4169 16.7612 18.9782L16.6885 18.8965C16.3789 18.5448 16.0542 18.179 15.9224 17.7851C15.7896 17.3772 15.8188 16.8848 15.8486 16.4065V16.3956C15.8926 15.7805 15.9351 15.1942 15.6274 14.7886C15.3179 14.3807 14.6841 14.2259 14.0659 14.0852C13.5796 13.9727 13.0786 13.8461 12.7251 13.6069C12.3999 13.3873 12.1499 13.0135 11.9058 12.6489L11.8408 12.5518L11.7979 12.4868L11.7949 12.4827C11.4707 11.9976 11.1401 11.5031 10.6479 11.342C10.5444 11.2998 10.4414 11.2857 10.3086 11.2857C9.91113 11.2857 9.46875 11.4545 8.99707 11.6374C8.52588 11.8203 8.04004 12.0032 7.58301 12.0032C7.46826 12.0032 7.35156 11.9916 7.2334 11.9714C7.16602 11.9598 7.09814 11.9454 7.03027 11.9287V1.33929C7.03027 1.00446 7.14453 0.669647 7.43066 0.390625C7.65967 0.167419 8.00293 0 8.40332 0H19.8457V7.58929ZM28.8892 6.32047C28.8174 6.15723 28.7158 6.0011 28.5996 5.85938L22.9927 0.390625C22.7065 0.167419 22.3633 0 22.02 0H21.6768V7.14285H29V6.80804C29 6.64331 28.9585 6.47858 28.8892 6.32047ZM14.5571 19.5021L14.5674 19.513L14.6216 19.5739C14.9224 19.9086 15.2324 20.2545 15.2324 20.6384C15.2324 21.0457 14.9058 21.4102 14.5903 21.7639L14.583 21.7723C14.3486 22.0377 14.1045 22.3137 14.0044 22.6106C13.8916 22.9214 13.9253 23.2966 13.9478 23.661V23.6668C13.9819 24.1363 14.0146 24.5841 13.7788 24.8936C13.5312 25.2045 13.0464 25.3224 12.5845 25.4296C12.2129 25.5153 11.8301 25.6011 11.5596 25.794C11.5112 25.8285 11.4663 25.8661 11.4224 25.9067C11.3848 25.9419 11.3481 25.9793 11.3115 26.0191V32L7.61621 29.8134L3.9209 32V26.0191C3.8418 25.9333 3.76318 25.8583 3.67285 25.794C3.40234 25.6118 3.01953 25.5153 2.64746 25.4296C2.17432 25.3224 1.68994 25.2045 1.45361 24.8936C1.21826 24.5847 1.25049 24.1379 1.28418 23.6693V23.661C1.29199 23.539 1.29932 23.4158 1.30225 23.2942C1.30811 23.0526 1.29541 22.8174 1.22803 22.6106C1.12744 22.3128 0.882812 22.0361 0.647949 21.77L0.64209 21.7639L0.637695 21.7591C0.32373 21.4069 0 21.0439 0 20.6384C0 20.2454 0.304199 19.8923 0.598633 19.5502L0.630859 19.513L0.636719 19.5069C0.871582 19.2408 1.11621 18.9641 1.2168 18.6662C1.32959 18.3554 1.29541 17.9803 1.27295 17.6158C1.23926 17.1442 1.20557 16.694 1.44189 16.3832C1.68994 16.0724 2.17432 15.9545 2.63623 15.8473L2.65674 15.8426C3.02197 15.7584 3.396 15.6723 3.66162 15.4828C3.91016 15.3156 4.10107 15.0308 4.2876 14.7531L4.3374 14.679C4.58545 14.2824 4.85596 13.8751 5.25 13.7572C5.28857 13.7433 5.32568 13.7335 5.36279 13.7267C5.4126 13.7178 5.46289 13.7143 5.52051 13.7143C5.83594 13.7143 6.1626 13.8429 6.52344 13.9823C6.73584 14.0644 6.95215 14.1465 7.16553 14.2001C7.31445 14.2374 7.46143 14.2609 7.60498 14.2609C7.9541 14.2609 8.32617 14.1216 8.68652 13.9823C9.04688 13.8429 9.38477 13.7143 9.68896 13.7143C9.79053 13.7143 9.86963 13.725 9.94824 13.7572C10.3252 13.8801 10.5786 14.2578 10.8271 14.6279L10.8608 14.679L10.9092 14.7509C11.0962 15.0294 11.2881 15.3151 11.5371 15.4828C11.8071 15.6651 12.1904 15.7615 12.562 15.8473C13.0352 15.9545 13.52 16.0724 13.7563 16.3832C13.9912 16.6917 13.9595 17.1373 13.9268 17.6049L13.9253 17.6158C13.9028 17.9803 13.8804 18.3554 13.9819 18.6662C14.0815 18.9623 14.3242 19.2375 14.5571 19.5021ZM4.16846 20.6384C4.16846 22.4391 5.71191 23.9076 7.60498 23.9076C9.49756 23.9076 11.041 22.4391 11.041 20.6384C11.041 18.827 9.49756 17.3693 7.60498 17.3693C5.71191 17.3693 4.16846 18.8377 4.16846 20.6384Z" fill="#f47979"/>
</svg>
