<svg width="17" height="11" viewBox="0 0 17 11" fill="none" xmlns="http://www.w3.org/2000/svg">
<path d="M7.66992 10.3125C7.86523 10.5566 8.1582 10.6543 8.5 10.6543C8.79297 10.6543 9.08594 10.5566 9.33008 10.3125L15.9707 3.67188C16.166 3.47656 16.3125 3.18359 16.3125 2.8418C16.3125 2.54883 16.166 2.25586 15.9707 2.01172L14.8477 0.9375C14.6035 0.742188 14.3105 0.595703 14.0176 0.595703C13.6758 0.595703 13.3828 0.742188 13.1875 0.9375L8.5 5.625L3.8125 0.9375C3.56836 0.742188 3.27539 0.595703 2.98242 0.595703C2.64062 0.595703 2.34766 0.742188 2.15234 0.9375L1.0293 2.01172C0.785156 2.25586 0.6875 2.54883 0.6875 2.8418C0.6875 3.18359 0.785156 3.47656 1.0293 3.67188L7.66992 10.3125Z" fill="#5EA896"/>
</svg>
