<svg width="16" height="16" viewBox="0 0 16 16" fill="none" xmlns="http://www.w3.org/2000/svg"><path d="M9.41 3.123C9.346 3.062 9.252 3 9.16 3a.396.396 0 0 0-.282.124L.414 11.588.008 15.15c-.032.25.03.469.218.625.156.187.375.25.625.218l3.56-.406 8.466-8.464A.396.396 0 0 0 13 6.84c0-.093-.062-.187-.124-.25L9.409 3.125zm6.153-.812c.28.313.437.656.437 1.062 0 .438-.156.781-.437 1.062l-1.437 1.437a.381.381 0 0 1-.281.125c-.125 0-.188-.031-.25-.125l-3.467-3.467c-.094-.062-.125-.125-.125-.25 0-.093.031-.187.125-.28L11.565.436A1.436 1.436 0 0 1 12.627 0c.406 0 .75.156 1.062.437l1.874 1.874z" fill="#fefefe"/></svg>