<svg width="20" height="20" viewBox="0 0 20 20" fill="none" xmlns="http://www.w3.org/2000/svg"><path fill-rule="evenodd" clip-rule="evenodd" d="M19.444 4.651c0 .571-.435 1.034-.972 1.034H.972C.435 5.685 0 5.222 0 4.65V3.618c0-.571.435-1.034.972-1.034h17.5c.537 0 .972.463.972 1.034V4.65z" fill="#DF5858"/><path d="M6.944 1.034C6.944.463 7.36 0 7.87 0h3.704c.511 0 .926.463.926 1.034V3.1c0 .57-.415 1.033-.926 1.033H7.87c-.511 0-.926-.462-.926-1.033V1.034z" fill="#DF5858"/><path fill-rule="evenodd" clip-rule="evenodd" d="M2.777 5.556h13.89V18a2 2 0 0 1-2 2h-9.89a2 2 0 0 1-2-2V5.556zm2.778 2.388a1 1 0 0 1 1-1h.778a1 1 0 0 1 1 1v7.723a1 1 0 0 1-1 1h-.778a1 1 0 0 1-1-1V7.944zm6.556-1a1 1 0 0 0-1 1v7.723a1 1 0 0 0 1 1h.777a1 1 0 0 0 1-1V7.944a1 1 0 0 0-1-1h-.777z" fill="#DF5858"/></svg>