<svg xmlns="http://www.w3.org/2000/svg" height="512" viewBox="0 0 512.00002 512.00002" width="512"><path d="M473.047 47.246h-46.664v-9.988C426.383 16.715 409.672 0 389.129 0c-20.547 0-37.262 16.715-37.262 37.258v9.988H160.125v-9.988C160.125 16.715 143.41 0 122.867 0 102.324 0 85.61 16.715 85.61 37.258v9.988H38.941C17.47 47.246 0 64.715 0 86.187v361.684C0 483.231 28.766 512 64.125 512h309.484a7.604 7.604 0 0 0 0-15.207H64.125c-26.973 0-48.918-21.945-48.918-48.918v-265.79c6.578 5.075 14.809 8.102 23.734 8.102h19.907a7.604 7.604 0 1 0 0-15.207H38.94c-13.086 0-23.734-10.652-23.734-23.742v-65.05c0-13.086 10.648-23.735 23.734-23.735h46.67v31.172c0 20.543 16.715 37.258 37.258 37.258 20.547 0 37.258-16.715 37.258-37.258V62.453h191.746v31.172c0 20.543 16.715 37.258 37.258 37.258 20.547 0 37.258-16.715 37.258-37.258V62.453h46.664c13.094 0 23.746 10.649 23.746 23.734v65.051c0 13.094-10.652 23.742-23.746 23.742H89.266a7.604 7.604 0 0 0-7.602 7.606c0 4.2 3.402 7.605 7.602 7.605h383.78c8.934 0 17.169-3.03 23.747-8.105v265.789c0 26.973-21.95 48.918-48.93 48.918h-43.836a7.6 7.6 0 0 0-7.601 7.602c0 4.2 3.402 7.605 7.601 7.605h43.836C483.23 512 512 483.234 512 447.875V86.187c0-21.472-17.473-38.94-38.953-38.94zM144.918 93.625c0 12.156-9.89 22.05-22.05 22.05-12.161 0-22.052-9.89-22.052-22.05V37.258c0-12.156 9.891-22.051 22.051-22.051 12.16 0 22.051 9.89 22.051 22.05zm266.258 0c0 12.156-9.89 22.05-22.051 22.05-12.156 0-22.05-9.89-22.05-22.05V54.887c0-.012.003-.024.003-.04 0-.011-.004-.023-.004-.038V37.258c0-12.156 9.895-22.051 22.051-22.051 12.16 0 22.05 9.89 22.05 22.05zm0 0" fill="#17191a"/><path d="M218.21 228.39c-16.491 0-29.91 13.419-29.91 29.91 0 16.493 13.419 29.91 29.91 29.91 16.493 0 29.911-13.417 29.911-29.91 0-16.491-13.418-29.91-29.91-29.91zm0 44.61c-8.105 0-14.702-6.594-14.702-14.7s6.597-14.702 14.703-14.702c8.105 0 14.7 6.597 14.7 14.703S226.315 273 218.21 273zm151.153 15.21c16.489 0 29.907-13.417 29.907-29.91 0-16.491-13.418-29.91-29.907-29.91-16.492 0-29.91 13.419-29.91 29.91 0 16.493 13.418 29.91 29.91 29.91zm0-44.612c8.106 0 14.7 6.597 14.7 14.703S377.469 273 369.363 273s-14.703-6.594-14.703-14.7 6.594-14.702 14.703-14.702zM142.637 228.39c-16.492 0-29.91 13.419-29.91 29.91 0 16.493 13.418 29.91 29.91 29.91 16.488 0 29.906-13.417 29.906-29.91 0-16.491-13.418-29.91-29.906-29.91zm0 44.61c-8.11 0-14.703-6.594-14.703-14.7s6.593-14.702 14.703-14.702c8.105 0 14.699 6.597 14.699 14.703S150.742 273 142.636 273zm151.148-44.61c-16.488 0-29.906 13.419-29.906 29.91 0 16.493 13.418 29.91 29.906 29.91 16.492 0 29.91-13.417 29.91-29.91 0-16.491-13.418-29.91-29.91-29.91zm0 44.61c-8.105 0-14.7-6.594-14.7-14.7s6.595-14.702 14.7-14.702c8.106 0 14.703 6.597 14.703 14.703S301.891 273 293.785 273zm151.153 15.21c16.492 0 29.91-13.417 29.91-29.91 0-16.491-13.418-29.91-29.91-29.91s-29.91 13.419-29.91 29.91c0 16.493 13.417 29.91 29.91 29.91zm0-44.612c8.105 0 14.699 6.597 14.699 14.703S453.043 273 444.937 273s-14.703-6.594-14.703-14.7 6.598-14.702 14.704-14.702zM67.059 312.543c-16.489 0-29.907 13.418-29.907 29.91S50.57 372.36 67.06 372.36c16.492 0 29.91-13.414 29.91-29.906s-13.418-29.91-29.91-29.91zm0 44.61c-8.106 0-14.7-6.594-14.7-14.7s6.594-14.703 14.7-14.703c8.105 0 14.703 6.598 14.703 14.703s-6.598 14.7-14.703 14.7zm151.151-44.61c-16.491 0-29.91 13.418-29.91 29.91s13.419 29.906 29.91 29.906c16.493 0 29.911-13.414 29.911-29.906s-13.418-29.91-29.91-29.91zm0 44.61c-8.105 0-14.702-6.594-14.702-14.7s6.597-14.703 14.703-14.703c8.105 0 14.7 6.598 14.7 14.703s-6.595 14.7-14.7 14.7zm151.153 15.207c16.489 0 29.907-13.415 29.907-29.907s-13.418-29.91-29.907-29.91c-16.492 0-29.91 13.418-29.91 29.91s13.418 29.906 29.91 29.906zm0-44.61c8.106 0 14.7 6.598 14.7 14.703s-6.594 14.7-14.7 14.7-14.703-6.594-14.703-14.7 6.594-14.703 14.703-14.703zm-226.726-15.207c-16.492 0-29.91 13.418-29.91 29.91s13.418 29.906 29.91 29.906c16.488 0 29.906-13.414 29.906-29.906s-13.418-29.91-29.906-29.91zm0 44.61c-8.11 0-14.703-6.594-14.703-14.7s6.593-14.703 14.703-14.703c8.105 0 14.699 6.598 14.699 14.703s-6.594 14.7-14.7 14.7zm151.148-44.61c-16.488 0-29.906 13.418-29.906 29.91s13.418 29.906 29.906 29.906c16.492 0 29.91-13.414 29.91-29.906s-13.418-29.91-29.91-29.91zm0 44.61c-8.105 0-14.7-6.594-14.7-14.7s6.595-14.703 14.7-14.703c8.106 0 14.703 6.598 14.703 14.703s-6.597 14.7-14.703 14.7zm151.153 15.207c16.492 0 29.91-13.415 29.91-29.907s-13.418-29.91-29.91-29.91-29.91 13.418-29.91 29.91 13.417 29.906 29.91 29.906zm0-44.61c8.105 0 14.699 6.598 14.699 14.703s-6.594 14.7-14.7 14.7-14.703-6.594-14.703-14.7 6.598-14.703 14.704-14.703zM67.059 396.695c-16.489 0-29.907 13.418-29.907 29.907 0 16.492 13.418 29.91 29.907 29.91 16.492 0 29.91-13.418 29.91-29.91 0-16.489-13.418-29.907-29.91-29.907zm0 44.61c-8.106 0-14.7-6.594-14.7-14.703 0-8.106 6.594-14.7 14.7-14.7 8.105 0 14.703 6.594 14.703 14.7 0 8.109-6.598 14.703-14.703 14.703zm151.151-44.61c-16.491 0-29.91 13.418-29.91 29.907 0 16.492 13.419 29.91 29.91 29.91 16.493 0 29.911-13.418 29.911-29.91 0-16.489-13.418-29.907-29.91-29.907zm0 44.61c-8.105 0-14.702-6.594-14.702-14.703 0-8.106 6.597-14.7 14.703-14.7 8.105 0 14.7 6.594 14.7 14.7 0 8.109-6.595 14.703-14.7 14.703zm-75.573-44.61c-16.492 0-29.91 13.418-29.91 29.907 0 16.492 13.418 29.91 29.91 29.91 16.488 0 29.906-13.418 29.906-29.91 0-16.489-13.418-29.907-29.906-29.907zm0 44.61c-8.11 0-14.703-6.594-14.703-14.703 0-8.106 6.593-14.7 14.703-14.7 8.105 0 14.699 6.594 14.699 14.7 0 8.109-6.594 14.703-14.7 14.703zm151.148-44.61c-16.488 0-29.906 13.418-29.906 29.907 0 16.492 13.418 29.91 29.906 29.91 16.492 0 29.91-13.418 29.91-29.91 0-16.489-13.418-29.907-29.91-29.907zm0 44.61c-8.105 0-14.7-6.594-14.7-14.703 0-8.106 6.595-14.7 14.7-14.7 8.106 0 14.703 6.594 14.703 14.7 0 8.109-6.597 14.703-14.703 14.703zm0 0" fill="#17191a"/></svg>