<svg xmlns="http://www.w3.org/2000/svg" viewBox="0 0 512 512" width="512" height="512"><path d="M216 236H20c-11.046 0-20 8.954-20 20s8.954 20 20 20h196c11.046 0 20-8.954 20-20s-8.954-20-20-20zm0 236H20c-11.046 0-20 8.954-20 20s8.954 20 20 20h196c11.046 0 20-8.954 20-20s-8.954-20-20-20zm0-354H20c-11.046 0-20 8.954-20 20s8.954 20 20 20h196c11.046 0 20-8.954 20-20s-8.954-20-20-20zm80-78h196c11.046 0 20-8.954 20-20s-8.954-20-20-20H296c-11.046 0-20 8.954-20 20s8.954 20 20 20zm-80 314H20c-11.046 0-20 8.954-20 20s8.954 20 20 20h196c11.046 0 20-8.954 20-20s-8.954-20-20-20zm276-118H296c-11.046 0-20 8.954-20 20s8.954 20 20 20h196c11.046 0 20-8.954 20-20s-8.954-20-20-20zM216 0H20C8.954 0 0 8.954 0 20s8.954 20 20 20h196c11.046 0 20-8.954 20-20s-8.954-20-20-20zm276 118H296c-11.046 0-20 8.954-20 20s8.954 20 20 20h196c11.046 0 20-8.954 20-20s-8.954-20-20-20zm0 236H296c-11.046 0-20 8.954-20 20s8.954 20 20 20h196c11.046 0 20-8.954 20-20s-8.954-20-20-20z" fill="#fff"/></svg>