<svg width="14" height="14" viewBox="0 0 14 14" fill="none" xmlns="http://www.w3.org/2000/svg"><path d="M13.563 3.063L10.937.437A1.447 1.447 0 0 0 9.876 0H1.5C1.083 0 .73.146.437.438A1.447 1.447 0 0 0 0 1.5v11c0 .417.146.77.438 1.063.291.291.645.437 1.062.437h11c.417 0 .77-.146 1.063-.438.291-.291.437-.645.437-1.062V4.125c0-.417-.146-.77-.438-1.063zM7 12a2.014 2.014 0 0 1-1.438-.563A2.014 2.014 0 0 1 5 10c0-.563.188-1.031.563-1.406A1.958 1.958 0 0 1 7 8c.563 0 1.031.198 1.406.594C8.802 8.969 9 9.438 9 10c0 .563-.198 1.042-.594 1.438C8.031 11.812 7.562 12 7 12zm3-9.531v3.156a.389.389 0 0 1-.125.281.338.338 0 0 1-.25.094h-7.25a.457.457 0 0 1-.281-.094A.457.457 0 0 1 2 5.625v-3.25c0-.104.031-.188.094-.25A.389.389 0 0 1 2.375 2h7.156c.084 0 .167.042.25.125l.094.094c.083.083.125.166.125.25z" fill="#6E86DA"/></svg>